<?xml version="1.0" encoding="utf-8"?>
<!-- Generator: Adobe Illustrator 28.0.0, SVG Export Plug-In . SVG Version: 6.00 Build 0)  -->
<svg version="1.1" id="Camada_1" xmlns="http://www.w3.org/2000/svg" xmlns:xlink="http://www.w3.org/1999/xlink" x="0px" y="0px"
	 viewBox="0 0 39 39" style="enable-background:new 0 0 39 39;" xml:space="preserve">
<style type="text/css">
	.st0{clip-path:url(#SVGID_00000046337012102507168160000009011163679823106198_);}
	.st1{fill:#F94343;}
	.st2{fill:#E53939;}
	.st3{fill:#F76363;}
	.st4{fill:#FFFFFF;}
</style>
<g id="Grupo_87540" transform="translate(55.353)">
	<g>
		<g>
			<defs>
				<rect id="SVGID_1_" x="-54.91" y="0.44" width="38.12" height="38.12"/>
			</defs>
			<clipPath id="SVGID_00000049186091568706860630000006408967674928663474_">
				<use xlink:href="#SVGID_1_"  style="overflow:visible;"/>
			</clipPath>
			<g id="Grupo_87539" style="clip-path:url(#SVGID_00000049186091568706860630000006408967674928663474_);">
				<path id="Caminho_2632" class="st1" d="M-54.91,19.5c0-10.53,8.53-19.06,19.06-19.06s19.06,8.53,19.06,19.06
					s-8.53,19.06-19.06,19.06l0,0C-46.38,38.56-54.91,30.03-54.91,19.5"/>
				<path id="Caminho_2633" class="st2" d="M-25.88,3.23c5.67,8.87,3.07,20.66-5.8,26.33c-6.15,3.93-14.01,4-20.23,0.18
					c5.67,8.87,17.46,11.46,26.33,5.79c8.87-5.67,11.46-17.46,5.79-26.33C-21.35,6.78-23.43,4.74-25.88,3.23"/>
				<path id="Caminho_2634" class="st3" d="M-52.32,21.51c0.01-9.78,7.93-17.7,17.71-17.69c5.49,0,10.67,2.55,14.02,6.9
					C-25.45,2.24-36.26-0.7-44.75,4.16c-8.48,4.86-11.42,15.67-6.56,24.16c0.4,0.7,0.85,1.38,1.35,2.02
					C-51.52,27.65-52.33,24.61-52.32,21.51"/>
				<path id="Caminho_2635" class="st4" d="M-24.64,17.28c0-0.02,0-0.03,0-0.05c0.13-3.41-2.53-6.29-5.94-6.42
					c-0.04,0-0.09,0-0.13,0c-2.43,0.01-4.55,1.67-5.15,4.03c-0.6-2.36-2.71-4.02-5.15-4.03c-3.41,0.06-6.13,2.88-6.07,6.29
					c0,0.04,0,0.09,0,0.13c0,0.02,0,0.03,0,0.05c-0.02,0.73,0,8.15,11.21,14.2l0,0h0.01l0,0C-24.63,25.43-24.61,18.01-24.64,17.28"
					/>
			</g>
		</g>
	</g>
</g>
</svg>
