<?xml version="1.0" encoding="utf-8"?>
<!-- Generator: Adobe Illustrator 28.0.0, SVG Export Plug-In . SVG Version: 6.00 Build 0)  -->
<svg version="1.1" id="Camada_1" xmlns="http://www.w3.org/2000/svg" xmlns:xlink="http://www.w3.org/1999/xlink" x="0px" y="0px"
	 viewBox="0 0 17 17" style="enable-background:new 0 0 17 17;" xml:space="preserve">
<style type="text/css">
	.st0{fill:#F5F5F5;}
</style>
<g>
	<path class="st0" d="M14.5,9.5c0,1.6,0,3.2,0,4.8c0,1.4-0.8,2.2-2.2,2.2c-2.5,0-5.1,0-7.6,0c-1.3,0-2.1-0.8-2.1-2.1
		c0-3.3,0-6.5,0-9.8c0-1.2,0.8-2,1.9-2C4.7,2.6,4.9,2.6,5,3c0,0.3-0.2,0.5-0.5,0.5c-0.8,0.1-1,0.4-1,1.2c0,3.2,0,6.5,0,9.7
		c0,0.8,0.4,1.2,1.2,1.2c2.6,0,5.2,0,7.7,0c0.8,0,1.1-0.4,1.1-1.1c0-3.2,0-6.5,0-9.8c0-0.7-0.3-1-1-1.1c-0.3,0-0.5-0.2-0.5-0.5
		c0-0.3,0.3-0.4,0.6-0.4c1,0,1.8,0.9,1.8,2C14.5,6.2,14.5,7.8,14.5,9.5z"/>
	<path class="st0" d="M6.8,3.5c-0.4-1.2-0.2-2,0.6-2.6C8,0.4,8.9,0.4,9.6,0.9c0.8,0.6,1,1.4,0.7,2.7c0.2,0,0.4,0,0.6,0
		c0.3,0,0.6,0.1,0.6,0.4c0,0.4-0.2,0.5-0.6,0.5c-0.8,0-1.7,0-2.5,0c-0.7,0-1.4,0-2.1,0C5.9,4.5,5.6,4.4,5.6,4c0-0.4,0.3-0.5,0.7-0.5
		C6.4,3.5,6.6,3.5,6.8,3.5z M8.5,3.5c0.6,0,1.1-0.4,1.1-1c0-0.6-0.4-1-1-1c-0.6,0-1.1,0.4-1.1,1C7.5,3.1,7.9,3.5,8.5,3.5z"/>
	<path class="st0" d="M7.5,11c1.2-1.3,2.3-2.4,3.4-3.5C11,7.4,11,7.3,11.2,7.2c0.2-0.1,0.5-0.1,0.6-0.1c0.3,0.2,0.2,0.4,0,0.7
		c-1.3,1.3-2.6,2.6-3.9,4c-0.2,0.2-0.5,0.2-0.7,0c-0.6-0.6-1.3-1.3-1.9-1.9C5,9.6,5,9.4,5.2,9.2c0.2-0.2,0.5-0.1,0.7,0.1
		C6.4,9.8,6.9,10.3,7.5,11z"/>
</g>
</svg>
