<?xml version="1.0" encoding="utf-8"?>
<!-- Generator: Adobe Illustrator 28.0.0, SVG Export Plug-In . SVG Version: 6.00 Build 0)  -->
<svg version="1.1" id="Camada_1" xmlns="http://www.w3.org/2000/svg" xmlns:xlink="http://www.w3.org/1999/xlink" x="0px" y="0px"
	 viewBox="0 0 17 17" style="enable-background:new 0 0 17 17;" xml:space="preserve">
<style type="text/css">
	.st0{fill:#F5F5F5;}
</style>
<g id="Grupo_87223">
	<path id="Caminho_2543" class="st0" d="M5.6,13.3c-1,0-2,0-2.9,0c-1,0.1-1.9-0.7-2-1.7c0-0.1,0-0.1,0-0.2c0-2.9,0-5.7,0-8.6
		c0-1,0.8-1.9,1.8-2c0.1,0,0.1,0,0.2,0c3.8,0,7.6,0,11.4,0c1-0.1,1.9,0.7,2,1.7c0,0.1,0,0.3,0,0.4c0,2.7,0,5.5,0,8.2
		c0.1,1-0.6,2-1.7,2.1c-0.2,0-0.3,0-0.5,0c-1.2,0-2.5,0-3.7,0c-0.3,0-0.6,0.1-0.8,0.3c-1.1,0.8-2.2,1.6-3.2,2.4
		c-0.2,0.1-0.3,0.2-0.5,0.2c-0.1-0.2-0.2-0.4-0.2-0.6C5.6,14.9,5.6,14.1,5.6,13.3 M6.5,14.9c1-0.7,1.8-1.4,2.7-2
		c0.3-0.2,0.6-0.3,1-0.3c1.4,0,2.7,0,4,0c0.6,0.1,1.1-0.3,1.1-0.8c0-0.1,0-0.2,0-0.3c0-2.8,0-5.7,0-8.5c0-0.8-0.3-1.1-1.1-1.1
		c-3.8,0-7.6,0-11.5,0C2,1.8,1.7,2.1,1.7,2.9c0,2.8,0,5.6,0,8.4c0,0.8,0.4,1.2,1.2,1.2c1,0,2.1,0,3.1,0c0.4,0,0.6,0.2,0.6,0.6
		C6.5,13.6,6.5,14.2,6.5,14.9"/>
	<path id="Caminho_2544" class="st0" d="M8.5,6.1c-1.1,0-2.1,0-3.2,0C5,6.1,4.7,6.1,4.7,5.7s0.2-0.5,0.6-0.5c2.2,0,4.3,0,6.5,0
		c0.3,0,0.6,0.1,0.6,0.4c0,0.4-0.2,0.5-0.6,0.5C10.7,6.1,9.6,6.1,8.5,6.1"/>
	<path id="Caminho_2545" class="st0" d="M7.1,8.1c0.6,0,1.2,0,1.8,0c0.3,0,0.5,0.1,0.5,0.4c0,0.3-0.2,0.5-0.5,0.5
		c-1.2,0-2.4,0-3.7,0c-0.3,0-0.5-0.1-0.5-0.5c0-0.3,0.2-0.4,0.5-0.4C5.8,8.1,6.4,8.1,7.1,8.1"/>
</g>
</svg>
