<?xml version="1.0" encoding="utf-8"?>
<!-- Generator: Adobe Illustrator 28.0.0, SVG Export Plug-In . SVG Version: 6.00 Build 0)  -->
<svg version="1.1" id="Camada_1" xmlns="http://www.w3.org/2000/svg" xmlns:xlink="http://www.w3.org/1999/xlink" x="0px" y="0px"
	 viewBox="0 0 17 17" style="enable-background:new 0 0 17 17;" xml:space="preserve">
<style type="text/css">
	.st0{fill:#F5F5F5;}
</style>
<g>
	<path class="st0" d="M2.5,5.2h9.7L10.2,7c-0.2,0.2-0.2,0.5,0,0.7c0.1,0.1,0.2,0.2,0.4,0.2s0.3-0.1,0.4-0.2L13.7,5
		c0,0,0.1-0.1,0.1-0.1c0,0,0,0,0,0l0,0c0-0.1,0-0.2,0-0.3c0,0,0,0,0-0.1c0-0.1-0.1-0.2-0.1-0.2c0,0,0,0,0,0L11,1.6
		c-0.2-0.2-0.5-0.2-0.7,0s-0.2,0.5,0,0.7l1.9,1.9H2.5C2.2,4.2,2,4.4,2,4.7S2.2,5.2,2.5,5.2z"/>
	<path class="st0" d="M13.3,11.4H3.7l1.9-1.9c0.2-0.2,0.2-0.5,0-0.7S5,8.6,4.8,8.8l-2.7,2.7C2,11.6,1.9,11.8,2,11.9c0,0,0,0,0,0.1
		c0,0.1,0.1,0.2,0.1,0.2l0,0l2.7,2.7c0.1,0.1,0.2,0.1,0.3,0.1s0.3-0.1,0.3-0.1c0.2-0.2,0.2-0.5,0-0.7l-1.8-1.9h9.7
		c0.3,0,0.5-0.2,0.5-0.5S13.6,11.4,13.3,11.4z"/>
</g>
</svg>
