<?xml version="1.0" encoding="utf-8"?>
<!-- Generator: Adobe Illustrator 28.0.0, SVG Export Plug-In . SVG Version: 6.00 Build 0)  -->
<svg version="1.1" id="Camada_1" xmlns="http://www.w3.org/2000/svg" xmlns:xlink="http://www.w3.org/1999/xlink" x="0px" y="0px"
	 viewBox="0 0 17 17" style="enable-background:new 0 0 17 17;" xml:space="preserve">
<style type="text/css">
	.st0{fill:#F5F5F5;}
</style>
<g>
	<path class="st0" d="M1.1,9.8C2,9.5,2.4,9.1,2.3,8.4c0-0.6-0.4-1-1.2-1.2c0-0.8-0.1-1.6,0-2.3c0.1-0.7,0.7-1.3,1.5-1.3
		c0.8,0,1.7,0,2.5,0c3,0,5.9,0,8.8,0c0.6,0,1.2,0.1,1.5,0.6c0.2,0.2,0.3,0.6,0.4,0.8c0.1,0.7,0,1.4,0,2.2c-0.7,0.1-1.2,0.5-1.2,1.3
		c0,0.6,0.3,1,1.2,1.3c0,0.8,0.1,1.5,0,2.3c-0.1,0.8-0.8,1.3-1.8,1.3c-2.6,0-5.1,0-7.7,0c-1.1,0-2.2,0-3.3,0c-1.2,0-1.9-0.6-1.9-1.8
		C1.1,11,1.1,10.4,1.1,9.8z M8.5,4.4c-1.9,0-3.8,0-5.6,0c-0.7,0-1,0.3-1,1c0,0.3,0,0.6,0,0.8c0,0.3,0.1,0.4,0.3,0.6
		C3.3,7.5,3.5,9.2,2.4,10c-0.5,0.3-0.6,0.7-0.5,1.2c0,0.1,0,0.2,0,0.3c0,1,0.2,1.2,1.2,1.2c3.6,0,7.2,0,10.8,0c0.1,0,0.3,0,0.4,0
		c0.5-0.1,0.8-0.4,0.8-0.9c0-0.3,0-0.6,0-0.9c0-0.3-0.1-0.5-0.4-0.6c-1.1-0.7-1.2-2.4-0.2-3.2c0.5-0.3,0.6-0.7,0.5-1.2
		c0-0.2,0-0.3,0-0.5c0-0.7-0.3-1-1-1C12.3,4.4,10.4,4.4,8.5,4.4z"/>
	<path class="st0" d="M8.5,6.1c1.1,0,2.1,0,3.2,0c0.6,0,0.9,0.2,0.9,0.8c0,1.1,0,2.1,0,3.2c0,0.6-0.3,0.9-0.9,0.9
		c-2.1,0-4.2,0-6.3,0c-0.6,0-0.9-0.3-0.9-0.9c0-1,0-2.1,0-3.1c0-0.7,0.3-0.9,0.9-0.9C6.4,6.1,7.4,6.1,8.5,6.1z M5.2,6.8
		c0,1.1,0,2.1,0,3.1c0,0.1,0.2,0.2,0.3,0.2c2,0,4,0,6,0c0.2,0,0.3-0.1,0.3-0.3c0-0.5,0-0.9,0-1.4c0-0.5,0-1,0-1.6
		C9.6,6.8,7.4,6.8,5.2,6.8z"/>
</g>
</svg>
