<?xml version="1.0" encoding="utf-8"?>
<!-- Generator: Adobe Illustrator 28.0.0, SVG Export Plug-In . SVG Version: 6.00 Build 0)  -->
<svg version="1.1" id="Camada_1" xmlns="http://www.w3.org/2000/svg" xmlns:xlink="http://www.w3.org/1999/xlink" x="0px" y="0px"
	 viewBox="0 0 39 39" style="enable-background:new 0 0 39 39;" xml:space="preserve">
<style type="text/css">
	.st0{clip-path:url(#SVGID_00000053512127301806781760000017496447713881359774_);}
	.st1{fill:#FFD05D;}
	.st2{fill:#FDC453;}
	.st3{fill:#FFD77F;}
	.st4{fill:#303030;}
	.st5{fill:#695342;}
	.st6{fill:#F06669;}
</style>
<g id="Grupo_87536" transform="translate(110.706)">
	<g>
		<g>
			<defs>
				<rect id="SVGID_1_" x="-110.27" y="0.44" width="38.12" height="38.12"/>
			</defs>
			<clipPath id="SVGID_00000031182192432453060280000009839539649523912861_">
				<use xlink:href="#SVGID_1_"  style="overflow:visible;"/>
			</clipPath>
			<g id="Grupo_87535" style="clip-path:url(#SVGID_00000031182192432453060280000009839539649523912861_);">
				<path id="Caminho_2615" class="st1" d="M-110.27,19.5c0-10.53,8.53-19.06,19.06-19.06s19.06,8.53,19.06,19.06
					s-8.53,19.06-19.06,19.06l0,0C-101.73,38.56-110.27,30.03-110.27,19.5"/>
				<path id="Caminho_2616" class="st2" d="M-81.23,3.23c5.67,8.87,3.07,20.66-5.8,26.33c-6.15,3.93-14.01,4-20.23,0.18
					c5.67,8.87,17.46,11.46,26.33,5.79s11.46-17.46,5.79-26.33C-76.7,6.78-78.78,4.74-81.23,3.23"/>
				<path id="Caminho_2617" class="st3" d="M-107.68,21.51c0.01-9.78,7.93-17.7,17.71-17.69c5.49,0,10.67,2.55,14.02,6.9
					C-80.81,2.24-91.62-0.7-100.1,4.15s-11.42,15.67-6.57,24.15c0.4,0.7,0.85,1.38,1.35,2.02
					C-106.87,27.65-107.68,24.61-107.68,21.51"/>
				<path id="Caminho_2618" class="st4" d="M-96.82,14.88c0,1.31-0.63,2.37-1.4,2.37c-0.77,0-1.4-1.06-1.4-2.37s0.63-2.37,1.4-2.37
					C-97.45,12.51-96.82,13.57-96.82,14.88"/>
				<path id="Caminho_2619" class="st4" d="M-82.78,14.88c0,1.31-0.63,2.37-1.4,2.37c-0.77,0-1.4-1.06-1.4-2.37s0.63-2.37,1.4-2.37
					S-82.78,13.57-82.78,14.88"/>
				<path id="Caminho_2620" class="st5" d="M-104.01,21.31c0.81,7.07,7.19,12.15,14.27,11.35c5.96-0.68,10.67-5.38,11.35-11.35
					H-104.01z"/>
				<path id="Caminho_2621" class="st6" d="M-100.05,29.21c4.85,4.59,12.4,4.71,17.39,0.28l-0.12-0.28
					C-91.38,25.02-99.94,29.16-100.05,29.21"/>
			</g>
		</g>
	</g>
</g>
</svg>
