<?xml version="1.0" encoding="utf-8"?>
<!-- Generator: Adobe Illustrator 28.0.0, SVG Export Plug-In . SVG Version: 6.00 Build 0)  -->
<svg version="1.1" id="Camada_1" xmlns="http://www.w3.org/2000/svg" xmlns:xlink="http://www.w3.org/1999/xlink" x="0px" y="0px"
	 viewBox="0 0 17 17" style="enable-background:new 0 0 17 17;" xml:space="preserve">
<style type="text/css">
	.st0{fill:#F5F5F5;}
</style>
<g>
	<path class="st0" d="M5.3,6.3C4.9,4.1,6.3,2.6,7.7,1c0.6-0.6,1.1-0.6,1.7,0c0.5,0.5,0.9,1.1,1.4,1.6c1,1.4,1.1,2,1,3.6
		c0,0,0,0.1,0.1,0.1c1.5,0.5,2.3,1.6,2.9,2.9c0.3,0.7,0.5,1.4,0.7,2.1c0.2,0.6-0.1,1-0.6,1.2c-1.4,0.4-2.9,0.6-4.3,0.3
		c-0.7-0.2-1.3-0.6-2-1c-1.4,1.4-3.2,1.2-5,0.9c-0.4-0.1-0.8-0.1-1.2-0.3c-0.5-0.2-0.8-0.6-0.7-1.1C1.9,10,2.5,8.6,3.5,7.5
		C4,7.1,4.6,6.7,5.3,6.3z M8.5,1.5c-0.8,0.8-1.6,1.6-2,2.6C6.1,5,6,5.8,6.4,6.6c0.2,0.4,0,0.7-0.5,0.7c-0.8,0.1-1.3,0.4-1.8,1
		c-0.9,0.9-1.2,2.1-1.6,3.4C3.7,12,4.8,12.2,6.1,12c0.8-0.1,1.6-0.5,2-1.3c0.2-0.4,0.6-0.3,0.9,0.1c0.4,0.4,0.8,0.9,1.3,1
		c0.7,0.2,1.4,0.3,2.1,0.3c0.7,0,1.4-0.2,2.3-0.4c-0.3-0.9-0.6-1.6-0.9-2.3c-0.6-1.1-1.4-2-2.7-2.1c-0.4,0-0.5-0.4-0.3-0.7
		c0.3-0.7,0.2-1.4,0-2.1C10.2,3.3,9.4,2.5,8.5,1.5z"/>
	<path class="st0" d="M14.4,6.8c-0.3-0.3-0.5-0.4-0.8-0.6c0.3-0.4,0.7-0.8,1-1.3c0-0.1-0.1-0.1-0.1-0.2C14,4.9,13.4,5,12.8,5.1
		c0,0-0.1,0-0.1-0.1c-0.1-1-0.4-0.8,0.7-1c0.5-0.1,1-0.1,1.5-0.1c0.6,0,0.9,0.4,0.6,1C15.3,5.5,14.9,6.1,14.4,6.8z"/>
	<path class="st0" d="M6.9,13.9c0.4-0.2,0.6-0.3,0.9-0.4C8,14,8.2,14.5,8.4,15.1c0.1,0,0.1,0,0.2,0c0.2-0.5,0.4-1.1,0.6-1.6
		c0.3,0.1,0.5,0.2,0.8,0.3c-0.2,0.8-0.4,1.6-1,2.3c-0.3,0.4-0.8,0.4-1.1-0.1C7.5,15.4,7.2,14.6,6.9,13.9z"/>
	<path class="st0" d="M2.6,6.8C2.2,6.1,1.7,5.6,1.4,4.9c-0.3-0.6,0-1,0.7-1c0.8,0,1.5,0.1,2.3,0.2c-0.1,0.4-0.1,0.7-0.2,1
		C3.6,5,3,4.9,2.5,4.8c0,0.1-0.1,0.1-0.1,0.2c0.3,0.4,0.6,0.8,1,1.3C3.2,6.3,3,6.5,2.6,6.8z"/>
	<path class="st0" d="M10.2,8.1c0,1-0.7,1.7-1.7,1.7c-1,0-1.7-0.8-1.7-1.7c0-1,0.7-1.7,1.7-1.7C9.5,6.4,10.2,7.1,10.2,8.1z M9.3,8.1
		c0-0.4-0.4-0.8-0.8-0.8c-0.4,0-0.8,0.4-0.8,0.8c0,0.4,0.4,0.8,0.8,0.8C8.9,8.9,9.3,8.5,9.3,8.1z"/>
</g>
</svg>
