<?xml version="1.0" encoding="utf-8"?>
<!-- Generator: Adobe Illustrator 28.0.0, SVG Export Plug-In . SVG Version: 6.00 Build 0)  -->
<svg version="1.1" id="Camada_1" xmlns="http://www.w3.org/2000/svg" xmlns:xlink="http://www.w3.org/1999/xlink" x="0px" y="0px"
	 viewBox="0 0 17 17" style="enable-background:new 0 0 17 17;" xml:space="preserve">
<style type="text/css">
	.st0{fill:#F5F5F5;}
</style>
<g>
	<path class="st0" d="M2.6,8.5c0-1.7,0-3.4,0-5.1c0-0.1,0-0.3,0-0.4C2.7,2.8,2.9,2.6,3,2.6c0.2,0,0.3,0.1,0.5,0.2
		C3.7,2.9,3.8,3.1,4,3.1c3.3,1.2,6.5,2.4,9.8,3.6c0.1,0,0.1,0,0.1,0.1c0.3,0.1,0.5,0.2,0.5,0.5c0,0.3-0.2,0.4-0.5,0.6
		c-1.2,0.4-2.5,0.9-3.7,1.4c-2.1,0.8-4.2,1.5-6.3,2.3c-0.2,0.1-0.3,0.2-0.3,0.5c0,0.5,0,1.1,0,1.6c0,0.5-0.2,0.7-0.5,0.7
		c-0.3,0-0.5-0.2-0.5-0.7C2.6,12,2.6,10.2,2.6,8.5z M3.7,4.2c0,2.2,0,4.3,0,6.4c2.9-1.1,5.7-2.1,8.6-3.2c0,0,0-0.1,0-0.1
		C9.4,6.3,6.6,5.2,3.7,4.2z"/>
</g>
</svg>
