<?xml version="1.0" encoding="utf-8"?>
<!-- Generator: Adobe Illustrator 28.0.0, SVG Export Plug-In . SVG Version: 6.00 Build 0)  -->
<svg version="1.1" id="Camada_1" xmlns="http://www.w3.org/2000/svg" xmlns:xlink="http://www.w3.org/1999/xlink" x="0px" y="0px"
	 viewBox="0 0 39 39" style="enable-background:new 0 0 39 39;" xml:space="preserve">
<style type="text/css">
	.st0{clip-path:url(#SVGID_00000149340234988028112550000013630785711252220581_);}
	.st1{fill:#4A85D3;}
	.st2{fill:#407EC1;}
	.st3{fill:#5B9ADD;}
	.st4{fill:#FFFFFF;}
</style>
<g id="Grupo_87542">
	<g>
		<g>
			<defs>
				<rect id="SVGID_1_" x="0.44" y="0.44" width="38.12" height="38.12"/>
			</defs>
			<clipPath id="SVGID_00000178171608164042777800000009101578807534962105_">
				<use xlink:href="#SVGID_1_"  style="overflow:visible;"/>
			</clipPath>
			<g id="Grupo_87541" style="clip-path:url(#SVGID_00000178171608164042777800000009101578807534962105_);">
				<path id="Caminho_2636" class="st1" d="M0.44,19.5C0.44,8.97,8.97,0.44,19.5,0.44S38.56,8.97,38.56,19.5S30.03,38.56,19.5,38.56
					l0,0C8.97,38.56,0.44,30.03,0.44,19.5"/>
				<path id="Caminho_2637" class="st2" d="M29.47,3.23c5.67,8.87,3.07,20.66-5.8,26.33c-6.15,3.93-14.01,4-20.23,0.18
					c5.67,8.87,17.46,11.46,26.33,5.79c8.87-5.67,11.46-17.46,5.79-26.33C34,6.78,31.92,4.74,29.47,3.23"/>
				<path id="Caminho_2638" class="st3" d="M3.03,21.51c0.01-9.78,7.93-17.7,17.71-17.69c5.49,0,10.67,2.55,14.02,6.9
					C29.9,2.24,19.09-0.7,10.6,4.16C2.12,9.02-0.82,19.83,4.04,28.32c0.4,0.7,0.85,1.38,1.35,2.02C3.84,27.65,3.03,24.61,3.03,21.51
					"/>
				<path id="Caminho_2639" class="st4" d="M30.49,14.99h-6.62c-0.14,0-0.26-0.11-0.26-0.25c0-0.02,0-0.05,0.01-0.07
					c0.23-0.97,0.33-1.97,0.29-2.97c0.02-0.58,0.01-1.16-0.03-1.75c-0.03-0.59-0.23-1.16-0.56-1.64c-0.38-0.53-0.98-0.86-1.63-0.89
					c-1.51,0-1.75,1.48-1.89,2.68c-0.05,1.42-0.34,2.82-0.85,4.14c-0.38,0.92-1.1,1.66-2.01,2.06c-0.66,0.29-1.36,0.52-2.07,0.67
					c-0.12,0.02-0.21,0.13-0.21,0.25V27c0,0.14,0.12,0.26,0.26,0.26h2.71c0.08,0,0.16,0.04,0.21,0.11c0.55,0.74,1.42,1.18,2.35,1.18
					h8.48c1.24,0,2.25-1.01,2.25-2.25c0-0.31-0.07-0.62-0.21-0.89c-0.05-0.11-0.03-0.24,0.07-0.31c0.48-0.49,0.76-1.14,0.76-1.83
					v-0.26c0-0.31-0.07-0.62-0.21-0.89c-0.05-0.11-0.03-0.24,0.07-0.31c0.48-0.38,0.75-0.95,0.76-1.56V20
					c0-0.31-0.07-0.62-0.21-0.89c-0.05-0.11-0.03-0.24,0.07-0.31c0.48-0.38,0.75-0.95,0.76-1.56C32.73,16,31.72,15,30.49,14.99"/>
				<path id="Caminho_2640" class="st4" d="M12.66,28.28H8.67c-0.34,0-0.61-0.27-0.61-0.61V16.49c0-0.34,0.27-0.61,0.61-0.61h3.99
					c0.34,0,0.61,0.27,0.61,0.61v11.17C13.28,28,13,28.28,12.66,28.28"/>
			</g>
		</g>
	</g>
</g>
</svg>
