<?xml version="1.0" encoding="utf-8"?>
<!-- Generator: Adobe Illustrator 28.0.0, SVG Export Plug-In . SVG Version: 6.00 Build 0)  -->
<svg version="1.1" id="Camada_1" xmlns="http://www.w3.org/2000/svg" xmlns:xlink="http://www.w3.org/1999/xlink" x="0px" y="0px"
	 viewBox="0 0 17 17" style="enable-background:new 0 0 17 17;" xml:space="preserve">
<style type="text/css">
	.st0{fill:#F5F5F5;}
</style>
<g>
	<path class="st0" d="M8.5,15.5c-0.9,0-1.8,0-2.7,0c-0.9,0-1.5-0.4-2-1.1C2.9,12.8,2,11.2,1.1,9.6c-0.4-0.8-0.4-1.5,0-2.3
		C2,5.8,3,4.2,3.9,2.6c0.4-0.8,1.1-1.1,1.9-1.1c1.8,0,3.6,0,5.4,0c0.9,0,1.5,0.4,1.9,1.1c0.9,1.6,1.9,3.2,2.8,4.9
		c0.4,0.7,0.4,1.3,0,2c-0.9,1.6-1.8,3.2-2.8,4.9c-0.4,0.8-1.1,1.1-1.9,1.1C10.3,15.4,9.4,15.5,8.5,15.5z M7.6,11.2
		c0.2-0.3,0.3-0.5,0.4-0.6c0.8-0.8,1.6-1.7,2.3-2.5c0.9-0.9,1.4-0.9,2.3,0c0.6,0.7,1.2,1.3,1.9,2c0.2-0.3,0.3-0.6,0.4-0.8
		c0.4-0.6,0.3-1.1,0-1.7c-0.9-1.5-1.8-3-2.6-4.5c-0.3-0.5-0.6-0.7-1.1-0.7c-1.8,0-3.6,0-5.4,0c-0.5,0-0.9,0.2-1.2,0.7
		C3.7,4.7,2.8,6.3,1.9,7.9C1.8,8.1,1.7,8.5,1.8,8.7c0.3,0.7,0.6,1.3,1,1.9c0.1,0,0.2,0.1,0.2,0.1C3.3,10.3,3.7,9.9,4,9.4
		c0.7-0.7,1.3-0.7,2,0C6.5,9.9,7,10.5,7.6,11.2z M5.6,14.4c0.1,0,0.2,0.1,0.2,0.1c1.8,0,3.7,0,5.5,0c0.3,0,0.7-0.3,0.9-0.5
		c0.6-0.9,1.1-1.8,1.6-2.7c0.1-0.2,0.2-0.4,0-0.6c-0.7-0.7-1.3-1.4-2-2.1c-0.2-0.2-0.4-0.3-0.7,0C9.4,10.5,7.5,12.4,5.6,14.4z
		 M6.9,11.8c-0.6-0.6-1-1.1-1.6-1.7c-0.2-0.2-0.4-0.2-0.6,0c-0.4,0.4-0.8,0.8-1.2,1.2c-0.1,0.1-0.1,0.3-0.1,0.4
		c0.4,0.8,0.9,1.6,1.4,2.4C5.5,13.2,6.2,12.5,6.9,11.8z"/>
	<path class="st0" d="M5.1,5.5C5.1,4.7,5.7,4,6.5,4C7.3,4,8,4.8,8,5.5C7.9,6.3,7.2,7,6.5,7C5.7,7,5.1,6.3,5.1,5.5z M6.4,6.1
		c0.1,0,0.2,0,0.2,0C6.8,5.9,7,5.7,7,5.5C7.1,5.2,6.8,4.9,6.5,5C6.3,5.1,6,5.3,6,5.5C6,5.7,6.2,5.9,6.4,6.1z"/>
</g>
</svg>
