<?xml version="1.0" encoding="utf-8"?>
<!-- Generator: Adobe Illustrator 28.0.0, SVG Export Plug-In . SVG Version: 6.00 Build 0)  -->
<svg version="1.1" id="Camada_1" xmlns="http://www.w3.org/2000/svg" xmlns:xlink="http://www.w3.org/1999/xlink" x="0px" y="0px"
	 viewBox="0 0 39 39" style="enable-background:new 0 0 39 39;" xml:space="preserve">
<style type="text/css">
	.st0{clip-path:url(#SVGID_00000106149170487285723440000006257118321663952571_);}
	.st1{fill:#FFD05D;}
	.st2{fill:#FDC453;}
	.st3{fill:#FFD77F;}
	.st4{fill:#5E4939;}
	.st5{fill:#2D292A;}
	.st6{fill:#414042;}
</style>
<g id="Grupo_87544" transform="translate(221.413)">
	<g>
		<g>
			<defs>
				<rect id="SVGID_1_" x="-220.97" y="0.44" width="38.12" height="38.12"/>
			</defs>
			<clipPath id="SVGID_00000096044570294932566760000001696395129111424172_">
				<use xlink:href="#SVGID_1_"  style="overflow:visible;"/>
			</clipPath>
			<g id="Grupo_87543" style="clip-path:url(#SVGID_00000096044570294932566760000001696395129111424172_);">
				<path id="Caminho_2641" class="st1" d="M-220.97,19.5c0-10.53,8.53-19.06,19.06-19.06s19.06,8.53,19.06,19.06
					s-8.53,19.06-19.06,19.06l0,0C-212.44,38.56-220.97,30.03-220.97,19.5"/>
				<path id="Caminho_2642" class="st2" d="M-191.94,3.23c5.67,8.87,3.07,20.66-5.8,26.33c-6.15,3.93-14.01,4-20.23,0.18
					c5.67,8.87,17.46,11.46,26.33,5.79c8.87-5.67,11.46-17.46,5.79-26.33C-187.41,6.78-189.49,4.74-191.94,3.23"/>
				<path id="Caminho_2643" class="st3" d="M-218.38,21.51c0.01-9.78,7.93-17.7,17.71-17.69c5.49,0,10.67,2.55,14.02,6.9
					c-4.86-8.48-15.67-11.42-24.16-6.56s-11.42,15.67-6.56,24.16c0.4,0.7,0.85,1.38,1.35,2.02
					C-217.58,27.65-218.39,24.61-218.38,21.51"/>
				<path id="Caminho_2644" class="st4" d="M-209.73,23.5c-0.25-0.24-0.65-0.24-0.89,0.01c-0.18,0.18-0.23,0.44-0.13,0.68
					c1.96,4.9,7.52,7.28,12.42,5.32c2.37-0.95,4.26-2.8,5.25-5.15c0.13-0.32-0.02-0.69-0.34-0.82c-0.23-0.09-0.49-0.05-0.67,0.13
					C-196.88,26.37-202.81,30.22-209.73,23.5"/>
				<path id="Caminho_2645" class="st5" d="M-188.46,12.27l-7.74,0.64c-0.09,0-0.18,0-0.27,0.01c-0.07,0.01-2.56,0.31-5.34,0.47
					c-0.07,0-0.13,0-0.2,0c-2.78-0.16-5.27-0.46-5.34-0.47c-0.09-0.01-0.18-0.01-0.27-0.01l-7.74-0.64
					c-1.52-0.03-2.36,0.72-2.28,2.04c0,0.05,0.55,3.06,0.55,3.06c0.11,1,0.45,1.97,1,2.82c0.35,0.48,0.81,0.87,1.34,1.12
					c0.27,0.14,0.55,0.24,0.84,0.31c0.26,0.05,0.52,0.07,0.77,0.07c0.23,0.01,0.61,0.03,0.84,0.03h2.5c0.83,0,1.64-0.19,2.38-0.56
					c1.07-0.57,1.89-1.53,2.29-2.68c0.5-1.06,1.31-1.95,2.31-2.54c0.55-0.36,1.25-0.36,1.8,0c0.52,0.34,1,0.74,1.42,1.2
					c0.3,0.36,0.57,0.75,0.8,1.15c0.28,0.44,0.46,0.96,0.76,1.41c0.28,0.45,0.65,0.83,1.08,1.13c0.77,0.51,1.67,0.81,2.6,0.87
					c0.11,0.01,0.22,0.01,0.34,0.01h2.5c0.23,0,0.61-0.02,0.84-0.03c0.26,0,0.52-0.02,0.77-0.07c0.29-0.07,0.57-0.17,0.84-0.31
					c0.53-0.26,1-0.64,1.34-1.12c0.55-0.85,0.89-1.81,1-2.82c0,0,0.54-3.01,0.55-3.06C-186.1,12.98-186.94,12.23-188.46,12.27"/>
				<path id="Caminho_2646" class="st6" d="M-194.02,21.73h2.5c0.23,0,0.61-0.02,0.84-0.03c0.26,0,0.52-0.02,0.78-0.07
					c0.29-0.07,0.57-0.17,0.84-0.31c0.53-0.26,1-0.64,1.34-1.12c0.55-0.85,0.89-1.81,1-2.82c0,0,0.54-3.01,0.55-3.06
					c0.01-0.17,0-0.35-0.02-0.52c-3.57,5.52-7.89,6.85-10.67,7.11c0.75,0.48,1.61,0.76,2.5,0.81
					C-194.25,21.73-194.14,21.73-194.02,21.73"/>
				<path id="Caminho_2647" class="st6" d="M-214.76,21.32c0.27,0.14,0.55,0.24,0.84,0.31c0.26,0.05,0.52,0.07,0.77,0.07
					c0.23,0.01,0.61,0.03,0.84,0.03h2.5c0.83,0,1.64-0.19,2.38-0.56c1.07-0.57,1.89-1.53,2.29-2.68c0.25-0.57,0.6-1.09,1.04-1.52
					c-3.3,2.34-7.18,3.73-11.22,4.01C-215.13,21.11-214.95,21.22-214.76,21.32"/>
			</g>
		</g>
	</g>
</g>
</svg>
