<?xml version="1.0" encoding="utf-8"?>
<!-- Generator: Adobe Illustrator 28.0.0, SVG Export Plug-In . SVG Version: 6.00 Build 0)  -->
<svg version="1.1" id="Camada_1" xmlns="http://www.w3.org/2000/svg" xmlns:xlink="http://www.w3.org/1999/xlink" x="0px" y="0px"
	 viewBox="0 0 17 17" style="enable-background:new 0 0 17 17;" xml:space="preserve">
<style type="text/css">
	.st0{fill:#F5F5F5;}
</style>
<g>
	<path class="st0" d="M16.5,8.5c0,4.3-3.5,8-7.8,8c-4.5,0-8.1-3.5-8.1-7.9c0-4.4,3.5-8,7.9-8C13.1,0.6,16.5,4.3,16.5,8.5z M15.5,8.6
		c0-3.9-3.1-7-7-7.1c-3.8-0.1-7,3.1-7.1,6.9c0,3.9,3.1,7.1,7,7.1C12.3,15.6,15.5,12.4,15.5,8.6z"/>
	<path class="st0" d="M11.2,10.1c0,0.9-0.6,1.6-1.6,1.8c-0.5,0.1-0.8,0.2-0.7,0.8c0.1,0.3-0.1,0.6-0.4,0.6S8,12.9,8.1,12.6
		c0.1-0.6-0.2-0.8-0.8-0.9c-0.3,0-0.5-0.1-0.8-0.2c-0.3-0.1-0.5-0.3-0.4-0.6c0.1-0.4,0.4-0.4,0.7-0.3c0.6,0.1,1.1,0.4,1.7,0.4
		c0.4,0,0.9-0.1,1.4-0.2c0.6-0.3,0.7-1.1,0-1.4C9.3,9.1,8.7,9,8.1,8.8C7.7,8.6,7.3,8.5,6.9,8.3C5.8,7.7,5.8,6.4,6.7,5.6
		C6.9,5.5,7,5.4,7.2,5.3c0.6-0.1,0.9-0.4,0.8-1C8,4.1,8.4,4,8.5,3.8C8.7,4,9,4.2,8.9,4.3C8.9,4.9,9.1,5.1,9.7,5.1
		c0.2,0,0.4,0.1,0.6,0.2c0.3,0.1,0.5,0.3,0.4,0.6c-0.1,0.3-0.4,0.3-0.6,0.3C9.6,6.1,9.1,5.9,8.7,6C8.2,6,7.8,6.1,7.4,6.3
		C6.8,6.6,6.8,7.2,7.4,7.5C7.8,7.7,8.3,7.8,8.7,8c0.6,0.2,1.1,0.4,1.6,0.7C10.9,8.9,11.2,9.4,11.2,10.1z"/>
</g>
</svg>
