<?xml version="1.0" encoding="utf-8"?>
<!-- Generator: Adobe Illustrator 28.0.0, SVG Export Plug-In . SVG Version: 6.00 Build 0)  -->
<svg version="1.1" id="Camada_1" xmlns="http://www.w3.org/2000/svg" xmlns:xlink="http://www.w3.org/1999/xlink" x="0px" y="0px"
	 viewBox="0 0 17 17" style="enable-background:new 0 0 17 17;" xml:space="preserve">
<style type="text/css">
	.st0{fill:#F5F5F5;}
</style>
<g>
	<path class="st0" d="M14.5,8.5c0,1.9,0,3.8,0,5.7c0,1.5-0.8,2.2-2.2,2.2c-2.5,0-5,0-7.5,0c-1.3,0-2.1-0.8-2.1-2.1
		c0-3.9,0-7.8,0-11.6c0-1.3,0.8-2.2,2.1-2.2c2.6,0,5.2,0,7.8,0c1.3,0,2.1,0.9,2.1,2.2C14.5,4.7,14.5,6.6,14.5,8.5z M13.5,8.6
		c0-1.9,0-3.9,0-5.8c0-0.9-0.3-1.2-1.2-1.2c-2.5,0-5.1,0-7.6,0c-0.9,0-1.2,0.3-1.2,1.3c0,3.8,0,7.7,0,11.5c0,0.9,0.3,1.3,1.3,1.3
		c2.5,0,5,0,7.5,0c0.9,0,1.3-0.4,1.3-1.3C13.5,12.4,13.5,10.5,13.5,8.6z"/>
	<path class="st0" d="M8.5,7.6c1.1,0,2.2,0,3.3,0c0.4,0,0.6,0.1,0.6,0.5c0,0.4-0.3,0.4-0.6,0.4c-2.2,0-4.4,0-6.6,0
		C4.8,8.5,4.6,8.4,4.6,8c0-0.4,0.3-0.5,0.6-0.5C6.3,7.6,7.4,7.6,8.5,7.6z"/>
	<path class="st0" d="M8.5,5.5c-1.1,0-2.2,0-3.3,0c-0.3,0-0.7,0-0.7-0.5c0-0.4,0.3-0.4,0.7-0.4c2.2,0,4.4,0,6.5,0
		c0.3,0,0.6,0,0.7,0.5c0,0.4-0.3,0.5-0.6,0.5C10.7,5.5,9.6,5.5,8.5,5.5z"/>
	<path class="st0" d="M7,10.6c0.7,0,1.3,0,2,0c0.3,0,0.6,0.1,0.5,0.4c0,0.2-0.3,0.5-0.5,0.5c-1.3,0-2.6,0-3.9,0
		c-0.3,0-0.5-0.2-0.5-0.5c0-0.3,0.2-0.4,0.5-0.4C5.7,10.6,6.3,10.6,7,10.6z"/>
</g>
</svg>
