<?xml version="1.0" encoding="utf-8"?>
<!-- Generator: Adobe Illustrator 28.0.0, SVG Export Plug-In . SVG Version: 6.00 Build 0)  -->
<svg version="1.1" id="Camada_1" xmlns="http://www.w3.org/2000/svg" xmlns:xlink="http://www.w3.org/1999/xlink" x="0px" y="0px"
	 viewBox="0 0 17 17" style="enable-background:new 0 0 17 17;" xml:space="preserve">
<style type="text/css">
	.st0{fill:#F5F5F5;}
</style>
<g>
	<path class="st0" d="M14,12.7C14,12.7,14,12.7,14,12.7L14,12.7c0-1.4,0-2.8,0-4.2c0-1.9,0-3.9,0-5.8c0-1.3-0.8-2.2-2.1-2.2
		c-2.6,0-5.2,0-7.8,0c-1.3,0-2.1,0.9-2.1,2.2c0,3.3,0,6.6,0,9.9l0,0c0,0.2,0,0.5,0,0.7c0,1.3,0.8,2.1,2.1,2.1c2.3,0,4.7,0,7,0
		c0.4,0.6,1,0.9,1.7,0.9c1.1,0,2-0.9,2-2C14.9,13.7,14.6,13.1,14,12.7z M4.3,14.6c-0.9,0-1.3-0.4-1.3-1.3c0-0.2,0-0.4,0-0.6
		c0-3.3,0-6.6,0-9.9c0-0.9,0.3-1.2,1.2-1.3c2.5,0,5.1,0,7.6,0c0.9,0,1.2,0.3,1.2,1.2c0,1.9,0,3.9,0,5.8c0,1,0,2.1,0,3.1l0,0
		c0,0.3,0,0.5,0,0.8c-0.1,0-0.1,0-0.2,0c-1.1,0-2,0.9-2,2c0,0.1,0,0.1,0,0.1C8.7,14.6,6.5,14.6,4.3,14.6z M12.9,15.7
		c-0.2,0-0.4-0.1-0.6-0.2c-0.3-0.2-0.5-0.5-0.6-0.9c0-0.1,0-0.1,0-0.1c0-0.7,0.6-1.2,1.2-1.2c0.1,0,0.1,0,0.2,0
		c0.4,0.1,0.7,0.3,0.9,0.6c0.1,0.2,0.2,0.4,0.2,0.6C14.1,15.1,13.6,15.7,12.9,15.7z"/>
	<path class="st0" d="M4.7,8.5c2.2,0,4.4,0,6.6,0c0.3,0,0.6-0.1,0.6-0.4c0-0.4-0.3-0.5-0.6-0.5c-1.1,0-2.2,0-3.3,0
		c-1.1,0-2.2,0-3.4,0c-0.3,0-0.6,0.1-0.6,0.5C4.1,8.4,4.4,8.5,4.7,8.5z"/>
	<path class="st0" d="M4.8,5.5c1.1,0,2.2,0,3.3,0s2.2,0,3.3,0c0.3,0,0.7,0,0.6-0.5c0-0.4-0.3-0.5-0.7-0.5c-2.2,0-4.4,0-6.5,0
		c-0.3,0-0.7,0-0.7,0.4C4.1,5.5,4.4,5.5,4.8,5.5z"/>
	<path class="st0" d="M8.5,10.6c-0.7,0-1.3,0-2,0c-0.6,0-1.2,0-1.9,0c-0.3,0-0.5,0.1-0.5,0.4c0,0.4,0.2,0.5,0.5,0.5
		c1.3,0,2.6,0,3.9,0c0.2,0,0.4-0.3,0.5-0.5C9,10.7,8.8,10.6,8.5,10.6z"/>
</g>
</svg>
