<?xml version="1.0" encoding="utf-8"?>
<!-- Generator: Adobe Illustrator 28.0.0, SVG Export Plug-In . SVG Version: 6.00 Build 0)  -->
<svg version="1.1" id="Camada_1" xmlns="http://www.w3.org/2000/svg" xmlns:xlink="http://www.w3.org/1999/xlink" x="0px" y="0px"
	 viewBox="0 0 17 17" style="enable-background:new 0 0 17 17;" xml:space="preserve">
<style type="text/css">
	.st0{fill:#F5F5F5;}
</style>
<g>
	<path class="st0" d="M8.5,16.5c-1.9,0-3.8,0-5.8,0c-0.8,0-1.2-0.4-1.2-1.3c0.1-2.8,2.4-5.1,5.2-5.1c1.4,0,2.9-0.1,4.3,0.1
		c2.4,0.3,4.3,2.7,4.3,5.2c0,0.7-0.4,1.1-1.1,1.1C12.4,16.5,10.4,16.5,8.5,16.5z M14.5,15.5c0.3-2.1-1.4-4.2-3.6-4.4
		C9.5,10.9,8,10.9,6.6,11c-2.2,0.1-3.8,1.7-4.1,3.9c-0.1,0.7-0.1,0.7,0.6,0.7c3.6,0,7.2,0,10.9,0C14.1,15.5,14.3,15.5,14.5,15.5z"/>
	<path class="st0" d="M4.6,4.5c0-2.2,1.8-4,4-4c2.2,0,3.9,1.8,3.9,4c0,2.2-1.7,4-4,4C6.3,8.5,4.5,6.7,4.6,4.5z M8.5,1.5
		c-1.7,0-3,1.3-3.1,3c0,1.7,1.3,3,3,3.1c1.7,0,3.1-1.3,3.1-3C11.5,2.8,10.2,1.5,8.5,1.5z"/>
</g>
</svg>
