<?xml version="1.0" encoding="utf-8"?>
<!-- Generator: Adobe Illustrator 27.7.0, SVG Export Plug-In . SVG Version: 6.00 Build 0)  -->
<svg version="1.1" id="Camada_1" xmlns="http://www.w3.org/2000/svg" xmlns:xlink="http://www.w3.org/1999/xlink" x="0px" y="0px"
	 viewBox="0 0 841.89 595.28" style="enable-background:new 0 0 841.89 595.28;" xml:space="preserve">
<style type="text/css">
	.st0{fill:#2BB8C9;}
	.st1{fill:#FFFFFF;}
	.st2{fill:url(#SVGID_1_);}
</style>
<path class="st0" d="M547.95,225.59c-0.27-4.17-0.33-7.81-0.36-11.36c-2.25-23.76-9.48-43.39-22.3-58.36
	c-15.55-18.16-34.1-27.25-55.65-27.25c-23.09,0-44.64,13.85-64.65,41.56v-62.34c0-32.02,1.07-52.33,3.23-60.96
	c2.77-8,6.54-13.77,11.31-17.32c4.77-3.54,10.23-5.31,16.39-5.31c5.54,0,10.92,1.54,16.16,4.62c5.23,3.08,10.16,8.47,14.78,16.16
	c7.39,9.24,12.31,14.78,14.78,16.62c4,2.16,7.54,3.23,10.62,3.23c5.23-0.92,9.62-3.15,13.16-6.7c3.54-3.54,5.31-7.62,5.31-12.24
	c0-8.62-4.47-16.16-13.39-22.63C483.8,13.18,469.33,8.1,453.94,8.1c-17.25,0-32.64,4.46-46.18,13.38
	c-13.55,8.92-23.55,20.29-30.02,34.12c-4.62,9.84-7.47,17.07-8.54,21.68c-1.08,4.62-1.62,14.76-1.62,30.44v64.34
	c5.98-1.13,28.14-4.47,48.07,2.82c4.92-4.07,9.07-6.88,12.42-8.37c7.69-4,15.54-6,23.55-6c15.08,0,28.55,7.3,40.41,21.88
	c11.85,14.59,17.78,34.62,17.78,60.1c0,29.17-6.16,51.13-18.47,65.86c-12.32,14.73-24.79,22.1-37.4,22.1
	c-8.62,0-17.09-1.84-25.4-5.53l-12.47-7.36l-11.08-9.67v-83.08c-3.73-11.92-13.34-23.77-37.4-19.66v94.39
	c9.21,10.08,42.03,41.91,90.04,41.91C514.57,341.44,550.57,266.17,547.95,225.59"/>
<path class="st0" d="M371.98,179.19c-0.01,0.01-0.03,0.02-0.04,0.03C371.95,179.21,371.97,179.2,371.98,179.19 M321.42,278.13
	c0-19.83,4.73-38.63,12.85-55.07c4.26-7.17,23.6-35.4,59.06-26.62c3.31,1.32,6.29,3.11,8.9,5.44c6.04,5.38,9.06,12.32,9.06,20.8
	l1.96,9.79c1.63,5.22,2.94,8.32,3.92,9.3c4.89,5.87,11.91,8.81,21.05,8.81c7.17,0,12.64-1.87,16.4-5.63
	c3.75-3.75,5.63-8.57,5.63-14.44c0-12.07-6.78-23.82-20.31-35.24c-13.55-11.42-31.25-17.13-53.11-17.13c-2.66,0-5.28,0.12-7.87,0.31
	c-0.32,0.02-0.65,0.04-1.03,0.07c-23.88,1.94-44.75,11.79-62.64,29.54c-0.36,0.35-0.71,0.72-1.07,1.08
	c-0.43,0.44-0.88,0.86-1.31,1.31c-0.21,0.22-0.41,0.46-0.62,0.68c-20.7,21.9-32.92,52.36-32.92,84.48
	c0,65.47,53.08,118.54,118.57,118.54c48.41,0,90.02-29.02,108.44-70.6c-18.4,29.31-48.81,48.48-83.23,48.48
	C366.95,392.03,321.42,341.04,321.42,278.13"/>
<path class="st1" d="M608.43,493.66l9.24-22.37l9.97,22.37H608.43z M588.12,519.83h9.09l7.72-18.3h26.35l8.23,18.3h9.05l-27.7-62.12
	h-6.21L588.12,519.83z M550.54,519.83h36.65v-8.05h-27.81v-53.72h-8.84V519.83z M506.15,519.83h36.65v-8.05h-27.81v-53.72h-8.84
	V519.83z M460.87,519.74h35.86v-7.87h-27.01v-19.19H495v-7.92h-25.29v-18.83h26.17v-7.87h-35.02V519.74z M436.64,493.52
	c2.03,0.77,3.6,1.93,4.71,3.49c1.11,1.56,1.66,3.29,1.66,5.17c0,1.83-0.52,3.54-1.57,5.13c-1.05,1.59-2.43,2.76-4.16,3.51
	c-1.72,0.75-5,1.13-9.84,1.13h-8.71v-19.59h8.27C431.4,492.37,434.61,492.76,436.64,493.52 M437.66,474.82c0,2.86-1,5.19-2.98,6.99
	c-1.99,1.8-5.34,2.7-10.06,2.7h-5.88v-18.57h7.6C433.89,465.93,437.66,468.9,437.66,474.82 M442.59,517.49
	c3.14-1.56,5.52-3.58,7.14-6.06c1.62-2.48,2.43-5.29,2.43-8.44c0-3.98-1.33-7.4-4-10.26c-2.67-2.86-6.26-4.72-10.77-5.57
	c6.28-2.62,9.42-6.97,9.42-13.04c0-3.15-0.75-5.93-2.26-8.33c-1.5-2.4-3.69-4.29-6.54-5.66c-2.86-1.37-6.84-2.06-11.94-2.06H409.9
	v61.77h20.91C435.52,519.83,439.45,519.05,442.59,517.49 M359.6,494.5l13.26-29.09l13.31,29.09H359.6z M371.6,457.62l-28.55,62.21
	h5.01l9.73-21.36H388l9.77,21.36h5.01l-28.56-62.21H371.6z M322.13,457.27c-4.89,0-9.08,1.6-12.56,4.79
	c-3.48,3.2-5.22,7.06-5.22,11.6c0,3.27,0.71,5.94,2.14,8.02c1.43,2.08,3.17,3.68,5.22,4.79c2.05,1.12,5.46,2.6,10.23,4.43
	c4.77,1.83,7.94,3.8,9.5,5.91c1.56,2.11,2.34,4.47,2.34,7.1c0,3.45-1.26,6.36-3.78,8.73c-2.52,2.37-5.61,3.56-9.26,3.56
	c-4.39,0-9.58-2.2-15.56-6.59v5.62c5.42,3.6,10.7,5.39,15.83,5.39c5.01,0,9.26-1.64,12.73-4.91c3.48-3.27,5.22-7.28,5.22-12.03
	c0-3.57-0.75-6.47-2.25-8.71c-1.5-2.24-3.33-3.95-5.48-5.13c-2.15-1.18-5.57-2.65-10.26-4.42c-4.69-1.77-7.77-3.61-9.24-5.53
	c-1.48-1.92-2.21-4.07-2.21-6.45c0-3.33,1.24-6.12,3.74-8.38c2.49-2.26,5.59-3.38,9.31-3.38c3.86,0,8.47,1.58,13.84,4.73v-5.26
	C331.7,458.57,326.94,457.27,322.13,457.27 M256.72,494.5l13.26-29.09l13.31,29.09H256.72z M268.71,457.62l-28.55,62.21h5.01
	l9.73-21.36h30.21l9.77,21.36h5.01l-28.55-62.21H268.71z M211.34,457.27c-8.84,0-16.46,3.04-22.86,9.11
	c-6.4,6.07-9.59,13.63-9.59,22.68c0,8.99,3.13,16.5,9.39,22.53c6.26,6.03,14.1,9.04,23.5,9.04c7.28,0,14.57-1.93,21.89-5.79v-4.95
	c-7.93,4.22-15.25,6.32-21.97,6.32c-8.05,0-14.66-2.55-19.85-7.65c-5.19-5.1-7.78-11.6-7.78-19.5c0-7.81,2.58-14.32,7.74-19.54
	c5.16-5.22,11.57-7.83,19.23-7.83c7.19,0,14.53,1.99,22.02,5.97v-5.22C225.53,458.99,218.29,457.27,211.34,457.27"/>
<linearGradient id="SVGID_1_" gradientUnits="userSpaceOnUse" x1="410.7626" y1="554.5623" x2="663.0054" y2="554.5623">
	<stop  offset="0.2682" style="stop-color:#2CB8C9"/>
	<stop  offset="0.7039" style="stop-color:#E6204B"/>
</linearGradient>
<path class="st2" d="M642.48,557.13c-1.49,1.64-3.12,3.42-4.17,4.76c-0.15-0.3-0.15-0.45-0.15-0.74c0-2.08,1.93-4.16,3.57-4.16
	C642.03,556.98,642.18,557.13,642.48,557.13 M644.12,558.02c2.38,1.64,5.35,3.87,8.18,5.35c-1.19,1.79-3.12,3.13-5.95,3.13
	c-2.97,0-6.55-1.64-7.73-3.72C640.1,561.74,642.18,559.96,644.12,558.02 M646.2,555.79c2.83-2.97,5.5-6.99,8.03-10.71
	c1.19,0.15,1.93,12.05-0.74,16.66c-2.53-1.19-5.36-3.42-8.03-5.21C645.75,556.39,645.9,556.09,646.2,555.79 M637.13,563.68
	c1.93,3.27,5.5,4.91,9.07,4.76c2.97-0.15,5.5,0.15,9.22-3.87c0.3,0.15,0.74,0.15,1.04,0.15c3.57,0,6.55-2.68,6.55-3.27
	c0-0.15,0-0.15-0.15-0.15c-0.45,0-4.02,1.78-6.25,1.64c4.02-6.1,2.53-21.57-1.04-22.31c-3.12-0.59-2.08,1.49-2.23,1.64
	c-5.35,8.77-7.59,10.86-9.52,13.39c-0.74-0.3-1.64-0.45-2.23-0.45c-3.12,0-5.35,2.68-5.35,5.35
	C636.23,561.74,636.53,562.64,637.13,563.68 M618.09,563.97c-2.83,1.79-4.17,2.23-4.61,2.08c-0.44-0.15-0.44-0.74-0.44-1.04
	c0-4.31,6.25-10.86,6.25-10.86c1.78-1.93,8.48-9.67,11.01-9.67c1.49,0,1.64,2.08,1.64,3.42
	C631.92,555.05,618.68,563.53,618.09,563.97 M640.99,543.3c0.15-0.15,0.44-0.89,0.44-1.49c0-0.45-0.15-0.89-1.04-0.89
	c-3.42,0-5.35,3.27-6.84,5.5c0.74-4.16-2.23-6.39-5.21-5.06c0,0-4.46,0.74-12.79,11.01c0,0-5.35,6.69-5.35,11.9
	c0,1.34,0.15,4.02,2.97,4.02c0.89,0,1.93-0.15,3.42-1.04c0,0,6.39-3.87,9.67-6.99v-0.15c-0.74,2.23-0.89,3.57-0.89,5.21
	c0,0,0.15,3.27,3.27,3.27c0-0.15,2.53,0.74,11.16-6.69c0,0,1.04-1.19,1.04-1.78c0-0.15-0.15-0.3-0.3-0.3
	c-1.19,0-9.07,6.84-11.6,6.84c-0.45,0-1.19-0.15-1.19-1.34C627.76,564.12,628.2,560.55,640.99,543.3 M613.93,537.2
	c0.15,0.15,0.3,0.15,0.59,0.15c1.49,0,3.87-2.97,3.87-5.35c0-0.89-0.45-1.34-1.04-1.34c-1.64,0-4.02,3.27-4.02,5.35
	C613.33,536.61,613.48,537.05,613.93,537.2 M608.42,543.3c-6.1,8.78-10.26,16.66-10.26,22.01c0,0-0.15,3.12,3.27,3.27
	c0.3,0,3.27,0.15,11.01-6.69c0,0,1.04-1.19,1.04-1.78c0-0.15-0.15-0.3-0.3-0.3c-0.15,0-0.45,0-0.74,0.15c0,0.3-8.48,6.99-10.71,6.69
	c-0.45,0-1.19-0.15-1.19-1.19c0-0.3,0-0.6,0.15-1.04c0,0,1.04-4.76,12.94-21.12c0.15-0.15,0.6-0.89,0.6-1.49
	c0-0.6-0.3-0.89-1.04-0.89C611.55,540.92,609.31,542.26,608.42,543.3 M594.44,541.52c-5.65,1.93-16.36,15.17-16.36,21.71
	c0,2.97,1.04,5.5,5.35,5.35c6.84-0.3,20.67-11.6,20.67-16.21c0-0.15-0.15-0.45-0.3-0.3c-1.93,3.27-12.05,14.43-20.53,14.43
	c-1.19,0-2.53-0.45-2.53-1.93c0-5.06,10.12-16.06,13.54-18.29c1.34-0.89,2.38-1.19,3.27-1.19c0,2.68-2.82,5.21-2.82,6.4
	c0,0.3-0.15,1.64,0.45,1.78l0.15-0.15l-0.15,0.15c0,0,3.27,0.15,4.31-5.35c0.74-4.16-0.45-6.84-3.27-6.84
	C595.78,541.07,595.18,541.22,594.44,541.52 M580.02,559.96c0,0.15-9.37,6.69-10.71,6.69c-0.6,0-1.19-0.15-1.19-2.23
	c0-0.45,0.3-3.57,11.45-18.89c0.15-0.15,0.3-0.74,0.3-1.49c0-1.93-0.89-4.02-5.95-2.83c-5.8,2.38-10.56,6.1-14.73,10.56
	c2.08-2.97,6.55-8.03,6.55-9.97c0-0.45-0.15-0.89-0.74-0.89c-5.21,0-10.86,10.56-15.32,21.71c-0.6,1.49-0.74,2.68-0.74,3.72
	c0,1.19,0.3,1.93,0.74,1.93c1.19,0,1.64-2.23,3.72-5.65c4.91-8.03,12.34-16.21,20.97-19.48c0.45-0.15,0.89-0.3,1.34-0.3
	c0.3,0.45-0.45,1.49-1.34,2.68c-5.21,7.88-8.77,13.83-8.77,18.74c0,2.97,1.78,4.31,3.42,4.31c-0.3,0,1.34,0.89,11.01-6.69
	c0,0,1.04-1.19,1.04-1.78c0-0.15-0.15-0.3-0.3-0.3C580.61,559.81,580.31,559.81,580.02,559.96 M551.46,531.85
	c-0.6-1.04-1.19-1.34-1.79-1.34c-0.59,0-1.04,0.3-1.04,0.3c-1.34,0.59-8.48,4.31-8.48,4.46c0,0.3,0.15,0.6,1.19,0.6
	c2.83,0,4.02-0.6,7.29-1.64c3.27,4.02,5.5,4.61,6.69,4.61c1.19,0,0.6-0.3,0.89-0.6C553.39,536.76,552.95,534.52,551.46,531.85
	 M530.78,563.97c-2.83,1.79-4.17,2.23-4.61,2.08c-0.45-0.15-0.45-0.74-0.45-1.04c0-4.31,6.25-10.86,6.25-10.86
	c1.78-1.93,8.48-9.67,11.01-9.67c1.49,0,1.64,2.08,1.64,3.42C544.62,555.05,531.38,563.53,530.78,563.97 M553.69,543.3
	c0.15-0.15,0.45-0.89,0.45-1.49c0-0.45-0.15-0.89-1.04-0.89c-3.42,0-5.35,3.27-6.84,5.5c0.74-4.16-2.23-6.39-5.21-5.06
	c0,0-4.46,0.74-12.79,11.01c0,0-5.35,6.69-5.35,11.9c0,1.34,0.15,4.02,2.97,4.02c0.89,0,1.93-0.15,3.42-1.04
	c0,0,6.39-3.87,9.67-6.99v-0.15c-0.74,2.23-0.89,3.57-0.89,5.21c0,0,0.15,3.27,3.27,3.27c0-0.15,2.53,0.74,11.16-6.69
	c0,0,1.04-1.19,1.04-1.78c0-0.15-0.15-0.3-0.3-0.3c-1.19,0-9.07,6.84-11.6,6.84c-0.45,0-1.19-0.15-1.19-1.34
	C540.45,564.12,540.9,560.55,553.69,543.3 M525.43,543.75c-0.45,3.12-2.53,6.25-2.97,7.29c-0.3,0.74-0.6,2.68,0.74,2.68
	c0.74,0,4.61-1.64,4.61-8.48c0-2.97-1.34-4.31-3.12-4.31c-3.87,0-9.97,5.95-12.79,8.92c1.64-2.53,5.21-6.4,5.21-8.18
	c0-0.45-0.3-0.6-0.74-0.74c-4.91-0.89-10.12,10.56-15.32,21.71c-0.74,1.49-0.74,2.83-0.74,3.72c0,1.19,0.3,1.93,0.74,1.93
	c1.04,0,1.34-1.78,3.57-5.5c4.46-7.59,10.86-15.17,18.44-19.34C523.79,543,525.43,542.56,525.43,543.75 M484.98,563.97
	c-2.68,1.64-3.87,2.08-4.46,2.08c-0.45,0-0.45-0.74-0.45-1.04c0-4.31,6.25-10.86,6.25-10.86c1.78-1.78,8.48-9.67,11.01-9.67
	c1.64,0.15,1.49,3.42,1.49,4.31C495.24,558.18,484.98,563.97,484.98,563.97 M468.76,585.24c-2.53,0-6.1-1.34-6.1-4.76
	c0-5.35,8.77-6.69,13.68-6.69c2.82,0,5.5,0.6,8.18,0.89C480.66,580.19,475.31,585.24,468.76,585.24 M485.87,573.2
	c-2.97-0.59-6.1-1.04-9.07-1.04c-5.95,0-16.21,1.04-16.21,8.48c0,4.31,5.5,6.55,8.48,6.55c7.88,0,13.83-4.61,19.34-11.6
	c11.15,2.38,19.63,4.02,28.41,4.02c9.52,0,19.78-1.19,32.43-6.55c1.78-0.74,6.84-2.83,6.84-5.5c0-0.6-0.45-1.04-1.04-1.04
	c-3.42,0-4.16,4.02-6.99,5.2c-12.05,5.21-21.72,6.25-30.34,6.25c-8.63,0-17.1-1.93-28.26-4.02c4.46-6.39,11.16-20.67,18.59-30.64
	c0.15-0.15,0.45-0.89,0.45-1.49c0-0.45-0.15-0.89-0.74-0.89c-3.87,0-5.8,3.42-6.99,5.8v-0.59c0-1.34-0.3-5.06-4.02-5.06
	c-0.45,0-0.89,0.15-1.49,0.3c0,0-4.46,0.74-12.79,11.01c0,0-5.35,6.69-5.35,11.9c0,1.78,0.3,4.02,3.57,4.02
	c0.74,0,1.64-0.3,2.97-1.04c0,0,6.4-3.87,9.67-6.99l0.15-0.3C490.93,565.02,488.55,569.33,485.87,573.2 M458.06,563.97
	c-2.82,1.79-4.16,2.23-4.61,2.08c-0.45-0.15-0.45-0.74-0.45-1.04c0-4.31,6.25-10.86,6.25-10.86c1.78-1.93,8.48-9.67,11.01-9.67
	c1.49,0,1.64,2.08,1.64,3.42C471.89,555.05,458.65,563.53,458.06,563.97 M480.96,543.3c0.15-0.15,0.45-0.89,0.45-1.49
	c0-0.45-0.15-0.89-1.04-0.89c-3.42,0-5.35,3.27-6.84,5.5c0.74-4.16-2.23-6.39-5.21-5.06c0,0-4.46,0.74-12.79,11.01
	c0,0-5.35,6.69-5.35,11.9c0,1.34,0.15,4.02,2.97,4.02c0.89,0,1.93-0.15,3.42-1.04c0,0,6.4-3.87,9.67-6.99v-0.15
	c-0.74,2.23-0.89,3.57-0.89,5.21c0,0,0.15,3.27,3.27,3.27c0-0.15,2.53,0.74,11.16-6.69c0,0,1.04-1.19,1.04-1.78
	c0-0.15-0.15-0.3-0.3-0.3c-1.19,0-9.07,6.84-11.6,6.84c-0.45,0-1.19-0.15-1.19-1.34C467.72,564.12,468.17,560.55,480.96,543.3
	 M452.7,543.75c-0.45,3.12-2.53,6.25-2.97,7.29c-0.3,0.74-0.6,2.68,0.74,2.68c0.74,0,4.61-1.64,4.61-8.48
	c0-2.97-1.34-4.31-3.12-4.31c-3.87,0-9.97,5.95-12.79,8.92c1.64-2.53,5.21-6.4,5.21-8.18c0-0.45-0.3-0.6-0.74-0.74
	c-4.91-0.89-10.11,10.56-15.32,21.71c-0.74,1.49-0.74,2.83-0.74,3.72c0,1.19,0.3,1.93,0.74,1.93c1.04,0,1.34-1.78,3.57-5.5
	c4.46-7.59,10.86-15.17,18.44-19.34C451.07,543,452.7,542.56,452.7,543.75 M424.74,542.26c-0.45-0.74-0.59-1.49-1.19-2.23h6.39
	c-1.34,1.64-2.53,3.42-3.87,5.21C425.64,544.19,425.19,543.15,424.74,542.26 M414.03,575.87c-0.45,0-0.89-0.3-0.89-1.19
	c0-3.27,5.8-12.49,12.64-22.16c0,0.74,0.15,1.49,0.15,2.08C425.93,560.26,420.43,575.87,414.03,575.87 M427.57,550.14
	c2.53-3.42,5.21-6.99,7.59-10.11h1.49c0.89,0,2.08-0.45,2.08-1.04c0-0.45-1.19-0.89-2.08-0.89c5.06-6.54,8.92-11.3,8.92-11.3
	s0.89-1.34,0.89-2.68c0-0.6-0.45-1.93-1.49-1.93c-0.74,0,1.19-3.42-13.54,15.91h-9.22c-0.45,0,0.6,0,0.3,0.15
	c-2.38-2.08-5.35-4.61-7.73-4.61c-0.6,0-1.04,0.15-1.04,0.74c0,2.68,6.69,5.06,7.44,5.5c1.49,2.23,2.68,4.61,3.57,7.14
	c-7.29,10.26-13.98,21.27-13.98,26.77v0.6c0,0,0.15,3.27,3.27,3.27c8.48,0,13.83-16.66,13.83-23.05
	C427.87,553.12,427.87,551.63,427.57,550.14"/>
</svg>
