<?xml version="1.0" encoding="utf-8"?>
<!-- Generator: Adobe Illustrator 28.2.0, SVG Export Plug-In . SVG Version: 6.00 Build 0)  -->
<svg version="1.1" id="Camada_1" xmlns="http://www.w3.org/2000/svg" xmlns:xlink="http://www.w3.org/1999/xlink" x="0px" y="0px"
	 viewBox="0 0 202.96 81.78" style="enable-background:new 0 0 202.96 81.78;" xml:space="preserve">
<style type="text/css">
	.st0{fill:#FFFFFF;}
	.st1{fill:url(#SVGID_1_);}
</style>
<g>
	<path class="st0" d="M143.15,53.42c-3.6,0-7.09,0-10.62,0c0-8.98,0-17.92,0-26.89c0.99,0,1.97,0,3.01,0c0,7.99,0,15.94,0,23.95
		c0.24,0,0.42,0,0.6,0c2.77,0,4.77-0.02,8.79-0.01c0.07,0,0.22,0,0.29,0.1C145.48,50.9,144.43,52.13,143.15,53.42z"/>
	<path class="st0" d="M100.91,53.54c-1.21,0-2.31,0.02-3.4-0.02c-0.17-0.01-0.37-0.25-0.49-0.43c-1.96-3.09-3.92-6.18-5.85-9.29
		c-0.25-0.4-0.5-0.57-1-0.57c-2.69,0.03-5.38,0.01-8.06,0.01c-0.2,0-0.4,0-0.66,0c0,3.45,0,6.85,0,10.27c-1.03,0-2,0-3,0
		c0-8.96,0-17.89,0-26.85c0.14-0.01,0.24-0.03,0.35-0.03c4.42,0.01,8.84-0.03,13.26,0.05c2.74,0.05,5.1,1.09,6.79,3.34
		c1.27,1.69,1.58,3.65,1.47,5.7c-0.1,1.93-0.72,3.64-2.19,4.96c-1.01,0.9-2.21,1.44-3.5,1.81c-0.23,0.07-0.46,0.12-0.78,0.21
		C96.2,46.31,98.52,49.87,100.91,53.54z M81.47,40.29c0.17,0.02,0.31,0.04,0.45,0.04c2.95,0,5.89,0.03,8.84-0.02
		c0.93-0.01,1.88-0.12,2.77-0.37c1.93-0.53,3.32-1.71,3.66-3.77c0.36-2.18-0.14-4.1-2.05-5.46c-1.08-0.77-2.31-1.14-3.63-1.15
		c-3.24-0.03-6.48-0.02-9.72-0.02c-0.1,0-0.21,0.03-0.33,0.04C81.47,33.17,81.47,36.71,81.47,40.29z"/>
	<path class="st0" d="M73.53,39.82c-0.06,5.59-2.29,9.72-6.93,12.43c-2.22,1.29-4.69,1.68-7.24,1.6c-2.57-0.08-4.99-0.69-7.13-2.17
		c-3.31-2.28-5.31-5.4-5.83-9.41c-0.31-2.37-0.22-4.72,0.6-6.98c1.61-4.42,4.65-7.38,9.25-8.51c3.9-0.95,7.71-0.59,11.15,1.64
		c3.41,2.21,5.42,5.38,5.97,9.44C73.45,38.59,73.49,39.33,73.53,39.82z M59.88,29.3c-2.68,0-5.11,0.73-7.19,2.55
		c-4.1,3.61-4.13,10.01-2.19,13.63c1.88,3.5,4.89,5.23,8.82,5.4c3.09,0.13,5.86-0.69,8.1-2.93c1.81-1.81,2.75-4.01,2.98-6.54
		c0.25-2.71-0.14-5.3-1.68-7.6C66.64,30.68,63.61,29.31,59.88,29.3z"/>
	<path class="st0" d="M129.07,53.55c-1.05,0-2.01-0.02-2.96,0.01c-0.35,0.01-0.47-0.15-0.59-0.43c-0.95-2.29-1.93-4.57-2.87-6.87
		c-0.15-0.38-0.34-0.52-0.76-0.52c-4.07,0.02-8.14,0.02-12.21,0c-0.47,0-0.67,0.17-0.84,0.58c-0.93,2.26-1.91,4.5-2.84,6.76
		c-0.15,0.37-0.34,0.49-0.72,0.47c-0.92-0.03-1.84-0.01-2.82-0.01c0.08-0.21,0.13-0.37,0.2-0.53c3.66-8.63,7.32-17.26,10.97-25.89
		c0.16-0.39,0.37-0.51,0.78-0.5c0.88,0.03,1.77,0.03,2.65,0c0.45-0.02,0.67,0.13,0.85,0.56c3.26,7.74,6.55,15.47,9.83,23.2
		C128.16,51.41,128.6,52.44,129.07,53.55z M115.75,29.81c-1.85,4.42-3.65,8.74-5.47,13.09c3.67,0,7.28,0,10.94,0
		C119.39,38.53,117.59,34.22,115.75,29.81z"/>
	<path class="st0" d="M2.64,26.67c6.47,0,12.89,0,19.35,0c0,0.97,0,1.9,0,2.89c-5.45,0-10.87,0-16.33,0c0,3.14,0,6.23,0,9.37
		c4.85,0,9.66,0,14.51,0c0,1,0,1.95,0,2.96c-4.85,0-9.66,0-14.53,0c0,3.91,0,7.75,0,11.62c-1.02,0-1.99,0-3,0
		C2.64,44.58,2.64,35.64,2.64,26.67z"/>
	<path class="st0" d="M29.33,50.61c4.9,0,9.74,0,14.62,0c0,1,0,1.94,0,2.91c-5.88,0-11.75,0-17.64,0c0-8.95,0-17.88,0-26.84
		c1,0,1.98,0,3.03,0C29.33,34.65,29.33,42.6,29.33,50.61z"/>
	<linearGradient id="SVGID_1_" gradientUnits="userSpaceOnUse" x1="129.875" y1="-0.9741" x2="191.4443" y2="84.9552">
		<stop  offset="0.2682" style="stop-color:#2BB8C9"/>
		<stop  offset="0.7039" style="stop-color:#FF0046"/>
	</linearGradient>
	<path class="st1" d="M200.32,78.3c-0.3,0-0.47,0-0.65,0c-6.19,0-12.38,0-18.57,0.01c-0.41,0-0.66-0.12-0.9-0.46
		c-7.05-9.78-14.11-19.56-21.17-29.33c-0.13-0.18-0.26-0.35-0.42-0.58c-0.95,1.26-1.87,2.47-2.79,3.69
		c-6.6,8.77-13.2,17.53-19.81,26.29c-0.14,0.18-0.43,0.36-0.65,0.36c-3.7,0.02-7.4,0.02-11.11,0.01c-0.09,0-0.17-0.01-0.36-0.03
		c6.43-8.25,12.81-16.44,19.26-24.71c1.07-1.44,1.96-2.57,2.53-3.27c3-3.72,4.64-5.93,7.48-9.58c0.03-0.04,0.06-0.09,0.11-0.18
		c-8.92-12.31-17.84-24.64-26.82-37.03c0.26-0.01,0.43-0.03,0.6-0.03c6.24,0,12.49,0,18.73-0.01c0.4,0,0.63,0.13,0.86,0.44
		c5.95,8.26,11.92,16.51,17.88,24.76c0.12,0.16,0.24,0.32,0.4,0.54c0.17-0.22,0.32-0.41,0.47-0.6c6.1-8.22,12.21-16.43,18.3-24.66
		c0.25-0.34,0.51-0.49,0.95-0.49c3.68,0.02,7.37,0.01,11.19,0.01c-8.59,11.09-17.11,22.09-25.66,33.13
		C180.2,50.48,190.23,64.34,200.32,78.3z"/>
</g>
</svg>
