<?xml version="1.0" encoding="utf-8"?>
<!-- Generator: Adobe Illustrator 27.9.0, SVG Export Plug-In . SVG Version: 6.00 Build 0)  -->
<svg version="1.1" id="Camada_1" xmlns="http://www.w3.org/2000/svg" xmlns:xlink="http://www.w3.org/1999/xlink" x="0px" y="0px"
	 viewBox="0 0 120.89 36.69" style="enable-background:new 0 0 120.89 36.69;" xml:space="preserve">
<style type="text/css">
	.st0{fill:#2BB8C9;}
	.st1{fill:#FFFFFF;}
	.st2{fill:url(#SVGID_1_);}
	.st3{fill:#FF0046;}
</style>
<g>
	<path class="st0" d="M25.27,19.62c-0.02-0.37-0.03-0.69-0.03-1c-0.2-2.1-0.84-3.84-1.97-5.16c-1.37-1.61-3.01-2.41-4.92-2.41
		c-2.04,0-3.95,1.22-5.72,3.67V9.21c0-2.83,0.09-4.63,0.29-5.39c0.24-0.71,0.58-1.22,1-1.53c0.42-0.31,0.9-0.47,1.45-0.47
		c0.49,0,0.97,0.14,1.43,0.41c0.46,0.27,0.9,0.75,1.31,1.43c0.65,0.82,1.09,1.31,1.31,1.47c0.35,0.19,0.67,0.29,0.94,0.29
		c0.46-0.08,0.85-0.28,1.16-0.59c0.31-0.31,0.47-0.67,0.47-1.08c0-0.76-0.39-1.43-1.18-2c-1.2-0.9-2.48-1.35-3.84-1.35
		c-1.52,0-2.89,0.39-4.08,1.18c-1.2,0.79-2.08,1.79-2.65,3.02C9.81,5.47,9.56,6.1,9.46,6.51C9.37,6.92,9.32,7.82,9.32,9.2v5.69
		c0.53-0.1,2.49-0.4,4.25,0.25c0.44-0.36,0.8-0.61,1.1-0.74c0.68-0.35,1.37-0.53,2.08-0.53c1.33,0,2.52,0.64,3.57,1.93
		c1.05,1.29,1.57,3.06,1.57,5.31c0,2.58-0.54,4.52-1.63,5.82c-1.09,1.3-2.19,1.95-3.31,1.95c-0.76,0-1.51-0.16-2.25-0.49l-1.1-0.65
		l-0.98-0.85v-7.34c-0.33-1.05-1.18-2.1-3.31-1.74v8.34c0.81,0.89,3.72,3.71,7.96,3.71C22.32,29.86,25.5,23.21,25.27,19.62"/>
	<path class="st0" d="M9.71,15.52C9.71,15.52,9.71,15.52,9.71,15.52C9.71,15.52,9.71,15.52,9.71,15.52 M5.24,24.27
		c0-1.75,0.42-3.42,1.14-4.87c0.38-0.63,2.09-3.13,5.22-2.35c0.29,0.12,0.56,0.28,0.79,0.48c0.53,0.48,0.8,1.09,0.8,1.84l0.17,0.87
		c0.14,0.46,0.26,0.74,0.35,0.82c0.43,0.52,1.05,0.78,1.86,0.78c0.63,0,1.12-0.17,1.45-0.5c0.33-0.33,0.5-0.76,0.5-1.28
		c0-1.07-0.6-2.11-1.8-3.12c-1.2-1.01-2.76-1.51-4.7-1.51c-0.24,0-0.47,0.01-0.7,0.03c-0.03,0-0.06,0-0.09,0.01
		c-2.11,0.17-3.96,1.04-5.54,2.61c-0.03,0.03-0.06,0.06-0.09,0.1c-0.04,0.04-0.08,0.08-0.12,0.12c-0.02,0.02-0.04,0.04-0.06,0.06
		c-1.83,1.94-2.91,4.63-2.91,7.47c0,5.79,4.69,10.48,10.48,10.48c4.28,0,7.96-2.57,9.59-6.24c-1.63,2.59-4.31,4.29-7.36,4.29
		C9.27,34.34,5.24,29.83,5.24,24.27"/>
</g>
<path class="st1" d="M110.22,17.49l1.68-4.06l1.81,4.06H110.22z M106.53,22.24h1.65l1.4-3.32h4.78l1.49,3.32h1.64l-5.03-11.27h-1.13
	L106.53,22.24z M99.71,22.24h6.65v-1.46h-5.05v-9.75h-1.6V22.24z M91.66,22.24h6.65v-1.46h-5.05v-9.75h-1.6V22.24z M83.45,22.22
	h6.51V20.8h-4.9v-3.48h4.59v-1.44h-4.59v-3.42h4.75v-1.43h-6.35V22.22z M79.05,17.47c0.37,0.14,0.65,0.35,0.85,0.63
	c0.2,0.28,0.3,0.6,0.3,0.94c0,0.33-0.09,0.64-0.28,0.93c-0.19,0.29-0.44,0.5-0.75,0.64c-0.31,0.14-0.91,0.2-1.79,0.2H75.8v-3.55h1.5
	C78.1,17.26,78.68,17.33,79.05,17.47 M79.23,14.07c0,0.52-0.18,0.94-0.54,1.27c-0.36,0.33-0.97,0.49-1.83,0.49H75.8v-3.37h1.38
	C78.55,12.46,79.23,13,79.23,14.07 M80.13,21.82c0.57-0.28,1-0.65,1.3-1.1c0.29-0.45,0.44-0.96,0.44-1.53
	c0-0.72-0.24-1.34-0.73-1.86c-0.48-0.52-1.14-0.86-1.95-1.01c1.14-0.48,1.71-1.26,1.71-2.37c0-0.57-0.14-1.08-0.41-1.51
	c-0.27-0.44-0.67-0.78-1.19-1.03c-0.52-0.25-1.24-0.37-2.17-0.37H74.2v11.21h3.79C78.85,22.24,79.56,22.1,80.13,21.82 M65.07,17.64
	l2.41-5.28l2.41,5.28H65.07z M67.25,10.95l-5.18,11.29h0.91l1.77-3.88h5.48l1.77,3.88h0.91l-5.18-11.29H67.25z M58.27,10.89
	c-0.89,0-1.65,0.29-2.28,0.87c-0.63,0.58-0.95,1.28-0.95,2.1c0,0.59,0.13,1.08,0.39,1.46c0.26,0.38,0.58,0.67,0.95,0.87
	c0.37,0.2,0.99,0.47,1.86,0.8c0.87,0.33,1.44,0.69,1.72,1.07c0.28,0.38,0.43,0.81,0.43,1.29c0,0.63-0.23,1.15-0.69,1.58
	c-0.46,0.43-1.02,0.65-1.68,0.65c-0.8,0-1.74-0.4-2.82-1.2v1.02c0.98,0.65,1.94,0.98,2.87,0.98c0.91,0,1.68-0.3,2.31-0.89
	c0.63-0.59,0.95-1.32,0.95-2.18c0-0.65-0.14-1.17-0.41-1.58c-0.27-0.41-0.6-0.72-0.99-0.93c-0.39-0.21-1.01-0.48-1.86-0.8
	c-0.85-0.32-1.41-0.65-1.68-1c-0.27-0.35-0.4-0.74-0.4-1.17c0-0.6,0.23-1.11,0.68-1.52c0.45-0.41,1.01-0.61,1.69-0.61
	c0.7,0,1.54,0.29,2.51,0.86V11.6C60.01,11.12,59.14,10.89,58.27,10.89 M46.4,17.64l2.41-5.28l2.41,5.28H46.4z M48.58,10.95
	L43.4,22.24h0.91l1.77-3.88h5.48l1.77,3.88h0.91l-5.18-11.29H48.58z M38.17,10.89c-1.6,0-2.99,0.55-4.15,1.65
	c-1.16,1.1-1.74,2.47-1.74,4.12c0,1.63,0.57,2.99,1.7,4.09c1.14,1.09,2.56,1.64,4.26,1.64c1.32,0,2.64-0.35,3.97-1.05v-0.9
	c-1.44,0.76-2.77,1.15-3.99,1.15c-1.46,0-2.66-0.46-3.6-1.39c-0.94-0.93-1.41-2.1-1.41-3.54c0-1.42,0.47-2.6,1.4-3.55
	c0.94-0.95,2.1-1.42,3.49-1.42c1.3,0,2.64,0.36,4,1.08v-0.95C40.74,11.2,39.43,10.89,38.17,10.89"/>
<linearGradient id="SVGID_1_" gradientUnits="userSpaceOnUse" x1="74.3526" y1="28.5431" x2="120.1226" y2="28.5431">
	<stop  offset="0.2682" style="stop-color:#2BB8C9"/>
	<stop  offset="0.7039" style="stop-color:#FF0046"/>
</linearGradient>
<path class="st2" d="M116.4,29.01c-0.27,0.3-0.57,0.62-0.76,0.86c-0.03-0.05-0.03-0.08-0.03-0.13c0-0.38,0.35-0.76,0.65-0.76
	C116.32,28.98,116.34,29.01,116.4,29.01 M116.69,29.17c0.43,0.3,0.97,0.7,1.48,0.97c-0.22,0.32-0.57,0.57-1.08,0.57
	c-0.54,0-1.19-0.3-1.4-0.67C115.97,29.85,116.34,29.52,116.69,29.17 M117.07,28.77c0.51-0.54,1-1.27,1.46-1.94
	c0.22,0.03,0.35,2.19-0.13,3.02c-0.46-0.22-0.97-0.62-1.46-0.94C116.99,28.87,117.02,28.82,117.07,28.77 M115.43,30.2
	c0.35,0.59,1,0.89,1.65,0.86c0.54-0.03,1,0.03,1.67-0.7c0.05,0.03,0.13,0.03,0.19,0.03c0.65,0,1.19-0.49,1.19-0.59
	c0-0.03,0-0.03-0.03-0.03c-0.08,0-0.73,0.32-1.13,0.3c0.73-1.11,0.46-3.91-0.19-4.05c-0.57-0.11-0.38,0.27-0.4,0.3
	c-0.97,1.59-1.38,1.97-1.73,2.43c-0.13-0.05-0.3-0.08-0.4-0.08c-0.57,0-0.97,0.49-0.97,0.97C115.26,29.85,115.32,30.01,115.43,30.2
	 M111.97,30.25c-0.51,0.32-0.76,0.4-0.84,0.38c-0.08-0.03-0.08-0.13-0.08-0.19c0-0.78,1.13-1.97,1.13-1.97
	c0.32-0.35,1.54-1.75,2-1.75c0.27,0,0.3,0.38,0.3,0.62C114.48,28.63,112.08,30.17,111.97,30.25 M116.13,26.5
	c0.03-0.03,0.08-0.16,0.08-0.27c0-0.08-0.03-0.16-0.19-0.16c-0.62,0-0.97,0.59-1.24,1c0.13-0.76-0.4-1.16-0.94-0.92
	c0,0-0.81,0.13-2.32,2c0,0-0.97,1.21-0.97,2.16c0,0.24,0.03,0.73,0.54,0.73c0.16,0,0.35-0.03,0.62-0.19c0,0,1.16-0.7,1.75-1.27
	v-0.03c-0.13,0.4-0.16,0.65-0.16,0.94c0,0,0.03,0.59,0.59,0.59c0-0.03,0.46,0.13,2.02-1.21c0,0,0.19-0.22,0.19-0.32
	c0-0.03-0.03-0.05-0.05-0.05c-0.22,0-1.65,1.24-2.11,1.24c-0.08,0-0.22-0.03-0.22-0.24C113.73,30.28,113.81,29.63,116.13,26.5
	 M111.22,25.39c0.03,0.03,0.05,0.03,0.11,0.03c0.27,0,0.7-0.54,0.7-0.97c0-0.16-0.08-0.24-0.19-0.24c-0.3,0-0.73,0.59-0.73,0.97
	C111.11,25.29,111.14,25.37,111.22,25.39 M110.22,26.5c-1.11,1.59-1.86,3.02-1.86,3.99c0,0-0.03,0.57,0.59,0.59
	c0.05,0,0.59,0.03,2-1.21c0,0,0.19-0.22,0.19-0.32c0-0.03-0.03-0.05-0.05-0.05c-0.03,0-0.08,0-0.13,0.03c0,0.05-1.54,1.27-1.94,1.21
	c-0.08,0-0.22-0.03-0.22-0.22c0-0.05,0-0.11,0.03-0.19c0,0,0.19-0.86,2.35-3.83c0.03-0.03,0.11-0.16,0.11-0.27
	c0-0.11-0.05-0.16-0.19-0.16C110.79,26.07,110.38,26.31,110.22,26.5 M107.68,26.18c-1.03,0.35-2.97,2.75-2.97,3.94
	c0,0.54,0.19,1,0.97,0.97c1.24-0.05,3.75-2.11,3.75-2.94c0-0.03-0.03-0.08-0.05-0.05c-0.35,0.59-2.19,2.62-3.72,2.62
	c-0.22,0-0.46-0.08-0.46-0.35c0-0.92,1.84-2.91,2.46-3.32c0.24-0.16,0.43-0.22,0.59-0.22c0,0.49-0.51,0.94-0.51,1.16
	c0,0.05-0.03,0.3,0.08,0.32l0.03-0.03l-0.03,0.03c0,0,0.59,0.03,0.78-0.97c0.13-0.76-0.08-1.24-0.59-1.24
	C107.92,26.09,107.82,26.12,107.68,26.18 M105.06,29.52c0,0.03-1.7,1.21-1.94,1.21c-0.11,0-0.22-0.03-0.22-0.4
	c0-0.08,0.05-0.65,2.08-3.43c0.03-0.03,0.05-0.13,0.05-0.27c0-0.35-0.16-0.73-1.08-0.51c-1.05,0.43-1.92,1.11-2.67,1.92
	c0.38-0.54,1.19-1.46,1.19-1.81c0-0.08-0.03-0.16-0.13-0.16c-0.94,0-1.97,1.92-2.78,3.94c-0.11,0.27-0.13,0.49-0.13,0.67
	c0,0.22,0.05,0.35,0.13,0.35c0.22,0,0.3-0.4,0.67-1.03c0.89-1.46,2.24-2.94,3.81-3.54c0.08-0.03,0.16-0.05,0.24-0.05
	c0.05,0.08-0.08,0.27-0.24,0.49c-0.94,1.43-1.59,2.51-1.59,3.4c0,0.54,0.32,0.78,0.62,0.78c-0.05,0,0.24,0.16,2-1.21
	c0,0,0.19-0.22,0.19-0.32c0-0.03-0.03-0.05-0.05-0.05C105.17,29.5,105.12,29.5,105.06,29.52 M99.88,24.42
	c-0.11-0.19-0.22-0.24-0.32-0.24c-0.11,0-0.19,0.05-0.19,0.05c-0.24,0.11-1.54,0.78-1.54,0.81c0,0.05,0.03,0.11,0.22,0.11
	c0.51,0,0.73-0.11,1.32-0.3c0.59,0.73,1,0.84,1.21,0.84c0.22,0,0.11-0.05,0.16-0.11C100.23,25.31,100.15,24.91,99.88,24.42
	 M96.13,30.25c-0.51,0.32-0.76,0.4-0.84,0.38c-0.08-0.03-0.08-0.13-0.08-0.19c0-0.78,1.13-1.97,1.13-1.97
	c0.32-0.35,1.54-1.75,2-1.75c0.27,0,0.3,0.38,0.3,0.62C98.64,28.63,96.24,30.17,96.13,30.25 M100.29,26.5
	c0.03-0.03,0.08-0.16,0.08-0.27c0-0.08-0.03-0.16-0.19-0.16c-0.62,0-0.97,0.59-1.24,1c0.13-0.76-0.4-1.16-0.94-0.92
	c0,0-0.81,0.13-2.32,2c0,0-0.97,1.21-0.97,2.16c0,0.24,0.03,0.73,0.54,0.73c0.16,0,0.35-0.03,0.62-0.19c0,0,1.16-0.7,1.75-1.27
	v-0.03c-0.13,0.4-0.16,0.65-0.16,0.94c0,0,0.03,0.59,0.59,0.59c0-0.03,0.46,0.13,2.02-1.21c0,0,0.19-0.22,0.19-0.32
	c0-0.03-0.03-0.05-0.05-0.05c-0.22,0-1.65,1.24-2.11,1.24c-0.08,0-0.22-0.03-0.22-0.24C97.88,30.28,97.97,29.63,100.29,26.5
	 M95.16,26.58c-0.08,0.57-0.46,1.13-0.54,1.32c-0.05,0.13-0.11,0.49,0.13,0.49c0.13,0,0.84-0.3,0.84-1.54
	c0-0.54-0.24-0.78-0.57-0.78c-0.7,0-1.81,1.08-2.32,1.62c0.3-0.46,0.94-1.16,0.94-1.48c0-0.08-0.05-0.11-0.13-0.13
	c-0.89-0.16-1.84,1.92-2.78,3.94c-0.13,0.27-0.13,0.51-0.13,0.67c0,0.22,0.05,0.35,0.13,0.35c0.19,0,0.24-0.32,0.65-1
	c0.81-1.38,1.97-2.75,3.35-3.51C94.86,26.45,95.16,26.36,95.16,26.58 M87.82,30.25c-0.49,0.3-0.7,0.38-0.81,0.38
	c-0.08,0-0.08-0.13-0.08-0.19c0-0.78,1.13-1.97,1.13-1.97c0.32-0.32,1.54-1.75,2-1.75c0.3,0.03,0.27,0.62,0.27,0.78
	C89.68,29.2,87.82,30.25,87.82,30.25 M84.88,34.11c-0.46,0-1.11-0.24-1.11-0.86c0-0.97,1.59-1.21,2.48-1.21c0.51,0,1,0.11,1.48,0.16
	C87.04,33.19,86.06,34.11,84.88,34.11 M87.98,31.92c-0.54-0.11-1.11-0.19-1.65-0.19c-1.08,0-2.94,0.19-2.94,1.54
	c0,0.78,1,1.19,1.54,1.19c1.43,0,2.51-0.84,3.51-2.11c2.02,0.43,3.56,0.73,5.15,0.73c1.73,0,3.59-0.22,5.88-1.19
	c0.32-0.13,1.24-0.51,1.24-1c0-0.11-0.08-0.19-0.19-0.19c-0.62,0-0.76,0.73-1.27,0.94c-2.19,0.94-3.94,1.13-5.51,1.13
	s-3.1-0.35-5.13-0.73c0.81-1.16,2.02-3.75,3.37-5.56c0.03-0.03,0.08-0.16,0.08-0.27c0-0.08-0.03-0.16-0.13-0.16
	c-0.7,0-1.05,0.62-1.27,1.05v-0.11c0-0.24-0.05-0.92-0.73-0.92c-0.08,0-0.16,0.03-0.27,0.05c0,0-0.81,0.13-2.32,2
	c0,0-0.97,1.21-0.97,2.16c0,0.32,0.05,0.73,0.65,0.73c0.13,0,0.3-0.05,0.54-0.19c0,0,1.16-0.7,1.75-1.27l0.03-0.05
	C88.9,30.44,88.47,31.22,87.98,31.92 M82.93,30.25c-0.51,0.32-0.76,0.4-0.84,0.38c-0.08-0.03-0.08-0.13-0.08-0.19
	c0-0.78,1.13-1.97,1.13-1.97c0.32-0.35,1.54-1.75,2-1.75c0.27,0,0.3,0.38,0.3,0.62C85.44,28.63,83.04,30.17,82.93,30.25 M87.09,26.5
	c0.03-0.03,0.08-0.16,0.08-0.27c0-0.08-0.03-0.16-0.19-0.16c-0.62,0-0.97,0.59-1.24,1c0.13-0.76-0.4-1.16-0.94-0.92
	c0,0-0.81,0.13-2.32,2c0,0-0.97,1.21-0.97,2.16c0,0.24,0.03,0.73,0.54,0.73c0.16,0,0.35-0.03,0.62-0.19c0,0,1.16-0.7,1.75-1.27
	v-0.03c-0.13,0.4-0.16,0.65-0.16,0.94c0,0,0.03,0.59,0.59,0.59c0-0.03,0.46,0.13,2.02-1.21c0,0,0.19-0.22,0.19-0.32
	c0-0.03-0.03-0.05-0.05-0.05c-0.22,0-1.65,1.24-2.1,1.24c-0.08,0-0.22-0.03-0.22-0.24C84.69,30.28,84.77,29.63,87.09,26.5
	 M81.96,26.58c-0.08,0.57-0.46,1.13-0.54,1.32c-0.05,0.13-0.11,0.49,0.13,0.49c0.13,0,0.84-0.3,0.84-1.54
	c0-0.54-0.24-0.78-0.57-0.78c-0.7,0-1.81,1.08-2.32,1.62c0.3-0.46,0.94-1.16,0.94-1.48c0-0.08-0.05-0.11-0.13-0.13
	c-0.89-0.16-1.84,1.92-2.78,3.94c-0.13,0.27-0.13,0.51-0.13,0.67c0,0.22,0.05,0.35,0.13,0.35c0.19,0,0.24-0.32,0.65-1
	c0.81-1.38,1.97-2.75,3.35-3.51C81.67,26.45,81.96,26.36,81.96,26.58 M76.89,26.31c-0.08-0.13-0.11-0.27-0.22-0.4h1.16
	c-0.24,0.3-0.46,0.62-0.7,0.94C77.05,26.66,76.97,26.47,76.89,26.31 M74.95,32.41c-0.08,0-0.16-0.05-0.16-0.22
	c0-0.59,1.05-2.27,2.29-4.02c0,0.13,0.03,0.27,0.03,0.38C77.11,29.58,76.11,32.41,74.95,32.41 M77.4,27.74
	c0.46-0.62,0.94-1.27,1.38-1.84h0.27c0.16,0,0.38-0.08,0.38-0.19c0-0.08-0.22-0.16-0.38-0.16c0.92-1.19,1.62-2.05,1.62-2.05
	s0.16-0.24,0.16-0.49c0-0.11-0.08-0.35-0.27-0.35c-0.13,0,0.22-0.62-2.46,2.89h-1.67c-0.08,0,0.11,0,0.05,0.03
	c-0.43-0.38-0.97-0.84-1.4-0.84c-0.11,0-0.19,0.03-0.19,0.13c0,0.49,1.21,0.92,1.35,1c0.27,0.4,0.49,0.84,0.65,1.3
	c-1.32,1.86-2.54,3.86-2.54,4.86v0.11c0,0,0.03,0.59,0.59,0.59c1.54,0,2.51-3.02,2.51-4.18C77.46,28.28,77.46,28.01,77.4,27.74"/>
<rect x="46.4" y="47.44" class="st0" width="12.6" height="9.19"/>
<rect x="60.44" y="47.44" class="st3" width="12.6" height="9.19"/>
</svg>
