<?xml version="1.0" encoding="utf-8"?>
<!-- Generator: Adobe Illustrator 28.2.0, SVG Export Plug-In . SVG Version: 6.00 Build 0)  -->
<svg version="1.1" id="Camada_1" xmlns="http://www.w3.org/2000/svg" xmlns:xlink="http://www.w3.org/1999/xlink" x="0px" y="0px"
	 viewBox="0 0 109.19 43.56" style="enable-background:new 0 0 109.19 43.56;" xml:space="preserve">
<style type="text/css">
	.st0{fill:#FFFFFF;}
	.st1{fill:url(#SVGID_1_);}
</style>
<g>
	<path class="st0" d="M74.1,27.64c-1.68,0-3.32,0-4.97,0c0-4.2,0-8.39,0-12.59c0.46,0,0.92,0,1.41,0c0,3.74,0,7.46,0,11.21
		c0.11,0,0.2,0,0.28,0c1.3,0,2.23-0.01,4.11-0.01c0.03,0,0.1,0,0.14,0.05C75.19,26.47,74.7,27.04,74.1,27.64z"/>
	<path class="st0" d="M54.33,27.7c-0.56,0-1.08,0.01-1.59-0.01c-0.08,0-0.18-0.12-0.23-0.2c-0.92-1.45-1.83-2.89-2.74-4.35
		c-0.12-0.19-0.24-0.27-0.47-0.27c-1.26,0.01-2.52,0.01-3.77,0.01c-0.09,0-0.19,0-0.31,0c0,1.62,0,3.21,0,4.81c-0.48,0-0.93,0-1.4,0
		c0-4.19,0-8.38,0-12.57c0.06-0.01,0.11-0.02,0.16-0.02c2.07,0,4.14-0.02,6.21,0.02c1.28,0.02,2.39,0.51,3.18,1.56
		c0.59,0.79,0.74,1.71,0.69,2.67c-0.05,0.9-0.34,1.7-1.02,2.32c-0.47,0.42-1.04,0.67-1.64,0.85c-0.11,0.03-0.21,0.06-0.37,0.1
		C52.12,24.31,53.21,25.98,54.33,27.7z M45.23,21.5c0.08,0.01,0.14,0.02,0.21,0.02c1.38,0,2.76,0.01,4.14-0.01
		c0.43-0.01,0.88-0.06,1.3-0.17c0.9-0.25,1.55-0.8,1.71-1.76c0.17-1.02-0.07-1.92-0.96-2.56c-0.51-0.36-1.08-0.53-1.7-0.54
		c-1.52-0.01-3.03-0.01-4.55-0.01c-0.05,0-0.1,0.01-0.15,0.02C45.23,18.16,45.23,19.82,45.23,21.5z"/>
	<path class="st0" d="M41.51,21.28c-0.03,2.62-1.07,4.55-3.25,5.82c-1.04,0.61-2.2,0.79-3.39,0.75c-1.2-0.04-2.34-0.32-3.34-1.02
		c-1.55-1.07-2.48-2.53-2.73-4.41c-0.15-1.11-0.1-2.21,0.28-3.27c0.75-2.07,2.17-3.46,4.33-3.98c1.83-0.45,3.61-0.28,5.22,0.77
		c1.6,1.04,2.54,2.52,2.79,4.42C41.47,20.7,41.49,21.05,41.51,21.28z M35.12,16.35c-1.25,0-2.39,0.34-3.36,1.2
		c-1.92,1.69-1.93,4.69-1.02,6.38c0.88,1.64,2.29,2.45,4.13,2.53c1.45,0.06,2.74-0.32,3.79-1.37c0.85-0.85,1.29-1.88,1.39-3.06
		c0.11-1.27-0.06-2.48-0.78-3.56C38.28,17,36.87,16.36,35.12,16.35z"/>
	<path class="st0" d="M67.5,27.7c-0.49,0-0.94-0.01-1.39,0c-0.16,0-0.22-0.07-0.28-0.2c-0.45-1.07-0.9-2.14-1.35-3.21
		c-0.07-0.18-0.16-0.24-0.36-0.24c-1.9,0.01-3.81,0.01-5.71,0c-0.22,0-0.31,0.08-0.39,0.27c-0.44,1.06-0.89,2.11-1.33,3.17
		c-0.07,0.17-0.16,0.23-0.34,0.22c-0.43-0.01-0.86,0-1.32,0c0.04-0.1,0.06-0.18,0.09-0.25c1.71-4.04,3.43-8.08,5.13-12.12
		c0.08-0.18,0.17-0.24,0.37-0.23c0.41,0.01,0.83,0.02,1.24,0c0.21-0.01,0.32,0.06,0.4,0.26c1.53,3.62,3.07,7.24,4.6,10.86
		C67.08,26.7,67.29,27.18,67.5,27.7z M61.27,16.59c-0.87,2.07-1.71,4.09-2.56,6.13c1.72,0,3.41,0,5.12,0
		C62.98,20.68,62.13,18.66,61.27,16.59z"/>
	<path class="st0" d="M8.33,15.12c3.03,0,6.04,0,9.06,0c0,0.45,0,0.89,0,1.35c-2.55,0-5.09,0-7.64,0c0,1.47,0,2.91,0,4.39
		c2.27,0,4.52,0,6.79,0c0,0.47,0,0.91,0,1.39c-2.27,0-4.52,0-6.8,0c0,1.83,0,3.63,0,5.44c-0.48,0-0.93,0-1.4,0
		C8.33,23.5,8.33,19.32,8.33,15.12z"/>
	<path class="st0" d="M20.82,26.33c2.29,0,4.56,0,6.84,0c0,0.47,0,0.91,0,1.36c-2.75,0-5.5,0-8.26,0c0-4.19,0-8.37,0-12.57
		c0.47,0,0.93,0,1.42,0C20.82,18.86,20.82,22.58,20.82,26.33z"/>
	<linearGradient id="SVGID_1_" gradientUnits="userSpaceOnUse" x1="67.8831" y1="2.1825" x2="96.7026" y2="42.4044">
		<stop  offset="0.2682" style="stop-color:#2BB8C9"/>
		<stop  offset="0.7039" style="stop-color:#FF0046"/>
	</linearGradient>
	<path class="st1" d="M100.86,39.29c-0.14,0-0.22,0-0.3,0c-2.9,0-5.79,0-8.69,0c-0.19,0-0.31-0.06-0.42-0.21
		c-3.3-4.58-6.6-9.15-9.91-13.73c-0.06-0.08-0.12-0.16-0.2-0.27c-0.44,0.59-0.88,1.16-1.31,1.73c-3.09,4.1-6.18,8.21-9.27,12.31
		c-0.07,0.09-0.2,0.17-0.3,0.17c-1.73,0.01-3.47,0.01-5.2,0.01c-0.04,0-0.08-0.01-0.17-0.01c3.01-3.86,6-7.7,9.01-11.57
		c0.5-0.68,0.92-1.2,1.18-1.53c1.4-1.74,2.17-2.77,3.5-4.48c0.02-0.02,0.03-0.04,0.05-0.08c-4.17-5.76-8.35-11.53-12.55-17.33
		c0.12-0.01,0.2-0.02,0.28-0.02c2.92,0,5.85,0,8.77,0c0.19,0,0.29,0.06,0.4,0.21c2.79,3.87,5.58,7.73,8.37,11.59
		c0.06,0.08,0.11,0.15,0.19,0.25c0.08-0.1,0.15-0.19,0.22-0.28c2.86-3.85,5.71-7.69,8.57-11.54c0.12-0.16,0.24-0.23,0.44-0.23
		c1.72,0.01,3.45,0.01,5.24,0.01c-4.02,5.19-8.01,10.34-12.01,15.51C91.44,26.27,96.13,32.76,100.86,39.29z"/>
</g>
</svg>
