<?xml version="1.0" encoding="utf-8"?>
<!-- Generator: Adobe Illustrator 28.2.0, SVG Export Plug-In . SVG Version: 6.00 Build 0)  -->
<svg version="1.1" id="Camada_1" xmlns="http://www.w3.org/2000/svg" xmlns:xlink="http://www.w3.org/1999/xlink" x="0px" y="0px"
	 viewBox="0 0 162.67 65.79" style="enable-background:new 0 0 162.67 65.79;" xml:space="preserve">
<style type="text/css">
	.st0{fill:#2BB8C9;}
	.st1{fill:url(#SVGID_1_);}
</style>
<g>
	<path class="st0" d="M114.91,42.35c-2.89,0-5.7,0-8.54,0c0-7.22,0-14.41,0-21.64c0.79,0,1.58,0,2.42,0c0,6.43,0,12.82,0,19.26
		c0.2,0,0.34,0,0.49,0c2.23,0,3.84-0.02,7.07-0.01c0.06,0,0.18,0,0.24,0.08C116.79,40.33,115.94,41.31,114.91,42.35z"/>
	<path class="st0" d="M80.93,42.45c-0.97,0-1.86,0.02-2.74-0.02c-0.14,0-0.3-0.2-0.39-0.35c-1.58-2.49-3.15-4.98-4.71-7.47
		c-0.2-0.32-0.4-0.46-0.8-0.46c-2.16,0.02-4.33,0.01-6.49,0.01c-0.16,0-0.32,0-0.53,0c0,2.78,0,5.51,0,8.26c-0.83,0-1.61,0-2.41,0
		c0-7.21,0-14.39,0-21.6c0.11-0.01,0.2-0.03,0.28-0.03c3.56,0.01,7.11-0.03,10.66,0.04c2.21,0.04,4.1,0.88,5.46,2.68
		c1.02,1.36,1.27,2.93,1.18,4.59c-0.08,1.55-0.58,2.93-1.76,3.99c-0.81,0.73-1.78,1.16-2.81,1.46c-0.18,0.05-0.37,0.1-0.63,0.17
		C77.14,36.63,79.01,39.5,80.93,42.45z M65.29,31.79c0.13,0.01,0.25,0.03,0.36,0.03c2.37,0,4.74,0.02,7.11-0.01
		c0.75-0.01,1.51-0.1,2.23-0.3c1.55-0.42,2.67-1.37,2.94-3.03c0.29-1.75-0.11-3.3-1.65-4.4c-0.87-0.62-1.86-0.91-2.92-0.92
		c-2.61-0.02-5.21-0.02-7.82-0.02c-0.08,0-0.17,0.02-0.26,0.04C65.29,26.06,65.29,28.91,65.29,31.79z"/>
	<path class="st0" d="M58.9,31.41c-0.04,4.5-1.84,7.82-5.58,10c-1.79,1.04-3.78,1.35-5.82,1.29c-2.07-0.06-4.02-0.56-5.74-1.75
		c-2.66-1.84-4.27-4.35-4.69-7.57c-0.25-1.9-0.17-3.8,0.48-5.61c1.29-3.56,3.74-5.94,7.44-6.85c3.14-0.77,6.2-0.47,8.97,1.32
		c2.75,1.78,4.36,4.33,4.8,7.59C58.84,30.42,58.87,31.02,58.9,31.41z M47.93,22.95c-2.16,0-4.11,0.59-5.78,2.05
		c-3.3,2.91-3.32,8.05-1.76,10.96c1.51,2.82,3.94,4.21,7.1,4.35c2.48,0.11,4.71-0.55,6.52-2.35c1.46-1.45,2.21-3.23,2.4-5.26
		c0.2-2.18-0.11-4.26-1.35-6.12C53.36,24.06,50.93,22.96,47.93,22.95z"/>
	<path class="st0" d="M103.58,42.45c-0.85,0-1.62-0.02-2.39,0.01c-0.28,0.01-0.38-0.12-0.47-0.35c-0.77-1.84-1.55-3.68-2.31-5.52
		c-0.12-0.3-0.28-0.42-0.61-0.42c-3.27,0.01-6.55,0.02-9.82,0c-0.38,0-0.54,0.14-0.67,0.47c-0.75,1.82-1.53,3.62-2.28,5.44
		c-0.12,0.3-0.27,0.39-0.58,0.38c-0.74-0.02-1.48-0.01-2.27-0.01c0.06-0.17,0.11-0.3,0.16-0.43c2.94-6.94,5.89-13.88,8.83-20.83
		c0.13-0.31,0.3-0.41,0.63-0.4c0.71,0.02,1.42,0.03,2.13,0c0.36-0.01,0.54,0.1,0.69,0.45c2.63,6.23,5.27,12.44,7.91,18.67
		C102.86,40.73,103.21,41.56,103.58,42.45z M92.87,23.36c-1.49,3.56-2.94,7.03-4.4,10.53c2.95,0,5.86,0,8.8,0
		C95.8,30.38,94.35,26.91,92.87,23.36z"/>
	<path class="st0" d="M1.87,20.83c5.21,0,10.37,0,15.56,0c0,0.78,0,1.53,0,2.32c-4.39,0-8.75,0-13.13,0c0,2.53,0,5.01,0,7.54
		c3.9,0,7.77,0,11.68,0c0,0.81,0,1.57,0,2.38c-3.9,0-7.77,0-11.69,0c0,3.14,0,6.23,0,9.35c-0.82,0-1.6,0-2.41,0
		C1.87,35.24,1.87,28.05,1.87,20.83z"/>
	<path class="st0" d="M23.34,40.09c3.94,0,7.83,0,11.76,0c0,0.8,0,1.56,0,2.34c-4.73,0-9.45,0-14.19,0c0-7.2,0-14.38,0-21.6
		c0.81,0,1.6,0,2.43,0C23.34,27.25,23.34,33.65,23.34,40.09z"/>
	<linearGradient id="SVGID_1_" gradientUnits="userSpaceOnUse" x1="104.235" y1="-1.4071" x2="153.7678" y2="67.7234">
		<stop  offset="0.2682" style="stop-color:#2BB8C9"/>
		<stop  offset="0.7039" style="stop-color:#FF0046"/>
	</linearGradient>
	<path class="st1" d="M160.91,62.37c-0.24,0-0.38,0-0.52,0c-4.98,0-9.96,0-14.94,0.01c-0.33,0-0.53-0.1-0.73-0.37
		c-5.67-7.87-11.35-15.73-17.03-23.6c-0.1-0.14-0.21-0.28-0.34-0.46c-0.76,1.01-1.51,1.99-2.24,2.97
		c-5.31,7.05-10.62,14.11-15.94,21.15c-0.11,0.15-0.35,0.29-0.52,0.29c-2.98,0.02-5.96,0.01-8.94,0.01c-0.07,0-0.14-0.01-0.29-0.02
		c5.17-6.64,10.31-13.23,15.49-19.88c0.86-1.16,1.58-2.07,2.03-2.63c2.41-2.99,3.73-4.77,6.02-7.7c0.03-0.03,0.05-0.07,0.09-0.14
		c-7.17-9.91-14.35-19.82-21.58-29.79c0.21-0.01,0.35-0.03,0.48-0.03c5.02,0,10.05,0,15.07-0.01c0.32,0,0.5,0.1,0.69,0.36
		c4.79,6.64,9.59,13.28,14.38,19.92c0.1,0.13,0.19,0.26,0.32,0.44c0.14-0.17,0.26-0.33,0.38-0.49c4.91-6.61,9.82-13.22,14.73-19.84
		c0.2-0.27,0.41-0.39,0.76-0.39c2.96,0.02,5.93,0.01,9,0.01c-6.91,8.92-13.76,17.77-20.64,26.65
		C144.72,39.98,152.79,51.14,160.91,62.37z"/>
</g>
</svg>
